<svg width="836" height="607" viewBox="0 0 836 607" fill="none" xmlns="http://www.w3.org/2000/svg">
<path d="M727.409 1.81155C765.422 -5.41512 811.209 8.93154 828.689 45.7182C841.715 74.4249 834.262 108.132 818.342 134.078C774.089 199.852 689.635 225.745 613.662 225.758C608.915 225.772 607.089 230.878 605.089 234.318C569.142 307.092 531.849 379.252 490.969 449.385C466.515 491.158 440.649 532.892 406.009 567.105C385.102 587.812 358.009 604.652 327.955 606.078C280.595 608.958 249.169 562.265 245.569 519.558C232.089 420.078 292.249 332.412 306.475 236.865C311.782 201.798 308.075 157.518 274.929 136.918C209.742 100.012 110.529 156.918 115.662 233.372C117.915 269.145 168.062 278.212 188.875 252.652C208.275 233.492 200.515 205.012 197.315 181.518C208.195 174.025 220.822 187.852 228.529 195.278C272.462 244.385 256.249 326.025 206.835 365.278C164.662 400.545 99.7552 406.932 52.6752 377.758C19.9419 357.412 0.821877 319.305 0.128544 281.225C-2.00479 231.358 22.6352 183.678 57.6885 149.465C120.182 88.7715 213.822 60.5849 299.222 79.2782C345.675 89.2249 387.755 119.665 409.715 162.065C432.369 205.012 435.769 255.438 429.889 302.918C422.755 379.185 388.835 449.572 376.915 524.638C385.129 525.825 389.569 517.852 393.982 512.398C420.889 477.452 441.529 438.332 462.462 399.665C493.729 339.638 525.689 279.692 552.462 217.558C518.715 208.305 482.902 193.958 463.449 163.038C441.849 131.105 449.622 80.8782 484.595 61.7182C515.142 46.2382 556.075 49.2782 582.489 71.6115C567.715 78.6782 553.502 90.2115 549.915 106.998C544.569 129.958 560.169 152.785 579.889 163.238C598.449 132.412 610.489 97.8782 630.835 67.9982C652.675 34.4249 687.329 8.22488 727.409 1.81155ZM687.929 113.012C662.355 127.998 645.569 154.145 632.702 180.132C661.382 183.852 691.822 174.758 714.582 156.998C726.342 147.812 737.862 131.345 730.289 116.212C720.862 102.318 700.662 106.238 687.929 113.012Z" fill="#D3A329"/>
<path d="M697.142 247.544C698.888 242.691 706.408 242.931 707.848 247.931C716.435 269.118 721.635 291.771 731.222 312.504C752.648 322.531 776.182 328.011 798.462 336.078C804.008 337.758 803.368 345.718 797.715 346.718C775.262 353.984 753.062 362.118 730.515 369.118C721.928 390.718 716.848 413.531 709.035 435.384C707.942 441.011 699.888 442.064 698.195 436.251C689.315 414.731 683.888 391.758 674.688 370.438C652.408 361.531 628.595 356.104 606.395 346.731C601.715 345.184 602.128 338.518 606.755 337.198C628.368 327.571 651.822 322.544 673.542 313.344C684.342 292.904 688.875 269.224 697.142 247.544Z" fill="#D3A329"/>
</svg>
