<svg width="891" height="891" viewBox="0 0 891 891" fill="none" xmlns="http://www.w3.org/2000/svg">
<path d="M640.903 492.93C674.316 492.93 701.403 520.017 701.403 553.43C701.403 586.843 674.316 613.93 640.903 613.93C573.422 613.93 505.941 612.379 505.941 657.366C505.941 693.356 465.607 702.353 445.441 702.353C425.274 702.353 384.941 693.356 384.941 657.366C384.941 612.379 317.46 613.93 249.979 613.93C216.565 613.93 189.479 586.843 189.479 553.43C189.479 520.017 216.565 492.93 249.979 492.93C278.029 492.93 301.621 512.02 308.472 537.917C313.019 548 326.147 568.167 342.28 568.167C362.447 568.167 378.705 548 393.035 523.18C403.496 505.096 423.047 492.93 445.441 492.93C467.834 492.93 487.386 505.096 497.847 523.18C512.177 548 528.434 568.167 548.601 568.167C564.734 568.167 577.862 548 582.41 537.917C589.26 512.02 612.852 492.93 640.903 492.93Z" fill="#D3A329"/>
<path d="M400.327 316.272C400.327 378.43 368.754 428.819 329.807 428.819C290.86 428.819 259.287 378.43 259.287 316.272C259.287 254.114 290.86 203.725 329.807 203.725C368.754 203.725 400.327 254.114 400.327 316.272Z" fill="#D3A329"/>
<path d="M629.696 316.272C629.696 378.43 598.123 428.819 559.176 428.819C520.229 428.819 488.656 378.43 488.656 316.272C488.656 254.114 520.229 203.725 559.176 203.725C598.123 203.725 629.696 254.114 629.696 316.272Z" fill="#D3A329"/>
<path d="M800.518 445.203C800.518 244.183 641.438 81.2247 445.203 81.2247C248.968 81.2247 89.8886 244.183 89.8886 445.203C89.8886 646.223 248.968 809.182 445.203 809.182C641.438 809.182 800.518 646.223 800.518 445.203ZM890.406 445.203C890.406 681.207 701.347 890.406 445.203 890.406C189.059 890.406 0 681.207 0 445.203C0 209.199 189.059 0 445.203 0C701.347 0 890.406 209.199 890.406 445.203Z" fill="#D3A329"/>
</svg>
