<svg width="2374" height="604" viewBox="0 0 2374 604" fill="none" xmlns="http://www.w3.org/2000/svg">
<path d="M220.651 604C197.825 604 179.057 595.884 164.347 579.652C149.637 563.421 134.927 534.508 120.217 492.914L0 158.894H127.065L220.651 446.501L311.955 158.894H435.976L319.564 491.392C304.853 533.493 290.143 562.913 275.433 579.652C261.23 595.884 242.97 604 220.651 604Z" fill="#D3A329"/>
<path d="M623.547 604C584.997 604 550.758 594.109 520.83 574.326C491.41 554.544 468.331 527.153 451.591 492.153C434.852 457.153 426.483 417.081 426.483 371.936C426.483 327.806 434.599 289.002 450.831 255.524C467.062 221.538 489.381 195.162 517.787 176.394C546.192 157.118 578.91 147.481 615.938 147.481C644.344 147.481 669.453 153.06 691.264 164.22C713.583 174.872 731.59 189.836 745.286 209.111L752.133 158.894H854.089V592.587H752.133L745.286 535.522C732.097 556.826 714.851 573.565 693.547 585.739C672.243 597.913 648.909 604 623.547 604ZM645.612 495.957C674.018 495.957 696.59 484.798 713.329 462.479C730.068 440.16 738.438 409.979 738.438 371.936C738.438 333.893 730.068 303.965 713.329 282.154C696.59 259.835 674.018 248.676 645.612 248.676C616.699 248.676 593.873 259.835 577.134 282.154C560.395 303.965 552.026 333.893 552.026 371.936C552.026 409.979 560.395 440.16 577.134 462.479C593.873 484.798 616.699 495.957 645.612 495.957Z" fill="#D3A329"/>
<path d="M909.329 592.587V337.697C909.329 298.639 917.192 264.908 932.916 236.502C949.148 208.096 971.974 186.285 1001.39 171.068C1030.81 155.343 1065.56 147.481 1105.63 147.481C1145.7 147.481 1180.45 155.343 1209.87 171.068C1239.29 186.285 1261.86 208.096 1277.59 236.502C1293.82 264.908 1301.94 298.639 1301.94 337.697V592.587H1178.68V339.219C1178.68 311.828 1171.83 290.777 1158.13 276.067C1144.94 261.357 1127.44 254.002 1105.63 254.002C1084.33 254.002 1066.83 261.357 1053.13 276.067C1039.44 290.777 1032.59 311.828 1032.59 339.219V592.587H909.329Z" fill="#D3A329"/>
<path d="M1551.55 604C1509.45 604 1472.68 594.362 1441.23 575.087C1409.78 555.812 1385.43 529.182 1368.18 495.196C1350.94 460.704 1342.32 421.392 1342.32 377.262C1342.32 332.625 1350.94 293.06 1368.18 258.567C1385.43 224.075 1410.03 196.937 1441.99 177.154C1473.95 157.372 1512.24 147.481 1556.88 147.481C1594.42 147.481 1626.88 154.582 1654.27 168.785C1682.17 182.988 1703.73 203.278 1718.94 229.654C1734.67 256.031 1742.53 287.48 1742.53 324.001H1624.6C1624.6 303.205 1618.26 286.466 1605.57 273.784C1592.89 260.596 1576.15 254.002 1555.36 254.002C1528.98 254.002 1507.68 265.161 1491.45 287.48C1475.72 309.291 1467.86 338.965 1467.86 376.501C1467.86 413.53 1475.72 442.95 1491.45 464.762C1507.17 486.573 1528.47 497.479 1555.36 497.479C1576.66 497.479 1594.42 491.138 1608.62 478.457C1623.33 465.269 1630.68 449.291 1630.68 430.523H1748.62C1748.62 450.305 1744.31 470.595 1735.68 491.392C1727.06 511.682 1714.38 530.45 1697.64 547.696C1680.9 564.435 1660.1 578.131 1635.25 588.783C1610.9 598.928 1583 604 1551.55 604Z" fill="#D3A329"/>
<path d="M1781.43 592.587V0H1904.69V209.111C1918.39 189.328 1935.12 174.111 1954.91 163.459C1974.69 152.807 1996.75 147.481 2021.1 147.481C2053.57 147.481 2081.72 154.328 2105.56 168.024C2129.4 181.72 2147.66 200.741 2160.34 225.089C2173.53 249.437 2180.12 277.589 2180.12 309.545V592.587H2056.86V334.654C2056.86 309.799 2050.02 290.016 2036.32 275.306C2023.13 260.596 2004.87 253.241 1981.54 253.241C1957.7 253.241 1938.93 261.864 1925.23 279.11C1911.54 295.849 1904.69 318.168 1904.69 346.067V592.587H1781.43Z" fill="#D3A329"/>
<path d="M2242.99 592.587V147.481H2366.25V592.587H2242.99Z" fill="#D3A329"/>
<path d="M2304.62 125.543C2284.84 125.543 2268.1 119.709 2254.4 108.043C2241.21 96.3763 2234.62 81.159 2234.62 62.391C2234.62 44.1302 2241.21 29.1665 2254.4 17.4999C2268.1 5.8333 2284.84 0 2304.62 0C2323.9 0 2340.13 5.8333 2353.32 17.4999C2367.01 29.1665 2373.86 44.1302 2373.86 62.391C2373.86 81.159 2367.01 96.3763 2353.32 108.043C2340.13 119.709 2323.9 125.543 2304.62 125.543Z" fill="#D3A329"/>
</svg>
