<svg width="1806" height="607" viewBox="0 0 1806 607" fill="none" xmlns="http://www.w3.org/2000/svg">
<path d="M701.273 606.014C676.943 606.014 655.335 599.772 636.447 587.287C617.88 574.802 603.315 557.515 592.75 535.427C582.186 513.338 576.904 488.048 576.904 459.557C576.904 431.706 582.026 407.217 592.27 386.089C602.514 364.64 616.6 347.994 634.527 336.149C652.454 323.984 673.102 317.902 696.471 317.902C714.398 317.902 730.244 321.423 744.009 328.466C758.095 335.189 769.459 344.633 778.103 356.797L782.424 325.105H846.769V598.811H782.424L778.103 562.797C769.779 576.243 758.895 586.807 745.45 594.49C732.005 602.173 717.279 606.014 701.273 606.014ZM715.198 537.828C733.125 537.828 747.371 530.785 757.935 516.699C768.499 502.614 773.781 483.567 773.781 459.557C773.781 435.548 768.499 416.661 757.935 402.895C747.371 388.81 733.125 381.767 715.198 381.767C696.951 381.767 682.545 388.81 671.981 402.895C661.417 416.661 656.135 435.548 656.135 459.557C656.135 483.567 661.417 502.614 671.981 516.699C682.545 530.785 696.951 537.828 715.198 537.828Z" fill="#D3A329"/>
<path d="M881.632 598.811V437.949C881.632 413.299 886.593 392.011 896.517 374.084C906.761 356.157 921.167 342.392 939.734 332.788C958.301 322.864 980.23 317.902 1005.52 317.902C1030.81 317.902 1052.74 322.864 1071.31 332.788C1089.87 342.392 1104.12 356.157 1114.04 374.084C1124.29 392.011 1129.41 413.299 1129.41 437.949V598.811H1051.62V438.909C1051.62 421.622 1047.3 408.337 1038.65 399.054C1030.33 389.77 1019.28 385.128 1005.52 385.128C992.074 385.128 981.03 389.77 972.387 399.054C963.743 408.337 959.422 421.622 959.422 438.909V598.811H881.632Z" fill="#D3A329"/>
<path d="M1286.94 606.014C1260.37 606.014 1237.16 599.932 1217.32 587.767C1197.47 575.602 1182.1 558.796 1171.22 537.347C1160.33 515.579 1154.89 490.769 1154.89 462.919C1154.89 434.748 1160.33 409.778 1171.22 388.009C1182.1 366.241 1197.63 349.114 1217.8 336.629C1237.96 324.145 1262.13 317.902 1290.3 317.902C1313.99 317.902 1334.48 322.384 1351.77 331.347C1369.37 340.311 1382.98 353.116 1392.58 369.762C1402.51 386.409 1407.47 406.256 1407.47 429.305H1333.04C1333.04 416.18 1329.04 405.616 1321.04 397.613C1313.03 389.29 1302.47 385.128 1289.34 385.128C1272.7 385.128 1259.25 392.171 1249.01 406.256C1239.08 420.022 1234.12 438.749 1234.12 462.438C1234.12 485.807 1239.08 504.375 1249.01 518.14C1258.93 531.905 1272.38 538.788 1289.34 538.788C1302.79 538.788 1313.99 534.786 1322.96 526.783C1332.24 518.46 1336.88 508.376 1336.88 496.532H1411.31C1411.31 509.016 1408.59 521.821 1403.15 534.947C1397.71 547.752 1389.7 559.596 1379.14 570.48C1368.57 581.045 1355.45 589.688 1339.76 596.41C1324.4 602.813 1306.79 606.014 1286.94 606.014Z" fill="#D3A329"/>
<path d="M1432.02 598.811V224.826H1509.81V356.797C1518.45 344.312 1529.02 334.709 1541.5 327.986C1553.99 321.263 1567.91 317.902 1583.28 317.902C1603.77 317.902 1621.53 322.224 1636.58 330.867C1651.62 339.511 1663.15 351.515 1671.15 366.881C1679.48 382.247 1683.64 400.014 1683.64 420.182V598.811H1605.85V436.028C1605.85 420.342 1601.53 407.857 1592.88 398.574C1584.56 389.29 1573.03 384.648 1558.31 384.648C1543.26 384.648 1531.42 390.09 1522.77 400.974C1514.13 411.539 1509.81 425.624 1509.81 443.231V598.811H1432.02Z" fill="#D3A329"/>
<path d="M1723.31 598.811V317.902H1801.1V598.811H1723.31Z" fill="#D3A329"/>
<path d="M1762.21 304.057C1749.72 304.057 1739.16 300.376 1730.52 293.013C1722.19 285.65 1718.03 276.046 1718.03 264.201C1718.03 252.677 1722.19 243.233 1730.52 235.87C1739.16 228.508 1749.72 224.826 1762.21 224.826C1774.37 224.826 1784.62 228.508 1792.94 235.87C1801.58 243.233 1805.9 252.677 1805.9 264.201C1805.9 276.046 1801.58 285.65 1792.94 293.013C1784.62 300.376 1774.37 304.057 1762.21 304.057Z" fill="#D3A329"/>
<path d="M727.409 1.81155C765.422 -5.41512 811.209 8.93154 828.689 45.7182C841.715 74.4249 834.262 108.132 818.342 134.078C774.089 199.852 689.635 225.745 613.662 225.758C608.915 225.772 607.089 230.878 605.089 234.318C569.142 307.092 531.849 379.252 490.969 449.385C466.515 491.158 440.649 532.892 406.009 567.105C385.102 587.812 358.009 604.652 327.955 606.078C280.595 608.958 249.169 562.265 245.569 519.558C232.089 420.078 292.249 332.412 306.475 236.865C311.782 201.798 308.075 157.518 274.929 136.918C209.742 100.012 110.529 156.918 115.662 233.372C117.915 269.145 168.062 278.212 188.875 252.652C208.275 233.492 200.515 205.012 197.315 181.518C208.195 174.025 220.822 187.852 228.529 195.278C272.462 244.385 256.249 326.025 206.835 365.278C164.662 400.545 99.7552 406.932 52.6752 377.758C19.9419 357.412 0.821877 319.305 0.128544 281.225C-2.00479 231.358 22.6352 183.678 57.6885 149.465C120.182 88.7715 213.822 60.5849 299.222 79.2782C345.675 89.2249 387.755 119.665 409.715 162.065C432.369 205.012 435.769 255.438 429.889 302.918C422.755 379.185 388.835 449.572 376.915 524.638C385.129 525.825 389.569 517.852 393.982 512.398C420.889 477.452 441.529 438.332 462.462 399.665C493.729 339.638 525.689 279.692 552.462 217.558C518.715 208.305 482.902 193.958 463.449 163.038C441.849 131.105 449.622 80.8782 484.595 61.7182C515.142 46.2382 556.075 49.2782 582.489 71.6115C567.715 78.6782 553.502 90.2115 549.915 106.998C544.569 129.958 560.169 152.785 579.889 163.238C598.449 132.412 610.489 97.8782 630.835 67.9982C652.675 34.4249 687.329 8.22488 727.409 1.81155ZM687.929 113.012C662.355 127.998 645.569 154.145 632.702 180.132C661.382 183.852 691.822 174.758 714.582 156.998C726.342 147.812 737.862 131.345 730.289 116.212C720.862 102.318 700.662 106.238 687.929 113.012Z" fill="#D3A329"/>
</svg>
