<svg width="1231" height="1000" viewBox="0 0 1231 1000" fill="none" xmlns="http://www.w3.org/2000/svg">
<g clip-path="url(#clip0_447_25)">
<path d="M884.781 476.923C861.7 469.231 838.619 461.538 823.231 461.538H615.5V384.615H846.312C846.312 338.462 815.538 307.692 769.375 307.692H461.625C461.625 353.846 492.4 384.615 538.562 384.615V461.538C500.094 461.538 461.625 446.154 446.238 415.385L361.606 276.923C338.525 246.154 307.75 230.769 276.975 230.769H230.812V176.923C230.812 153.846 223.119 138.462 215.425 115.385L192.344 61.5385C169.262 23.0769 123.1 0 76.9375 0H0L384.688 538.462C415.463 584.615 469.319 615.385 523.175 615.385H615.5V692.308H538.562V846.154H492.4C423.156 846.154 353.913 876.923 307.75 923.077H230.812V1000H1077.12V923.077H1000.19C954.025 876.923 884.781 846.154 815.538 846.154H769.375V692.308H692.438V615.385H815.538C830.925 615.385 854.006 623.077 869.394 630.769L1000.19 700C1069.43 738.462 1154.06 738.462 1223.31 700H1231L884.781 476.923Z" fill="white"/>
</g>
<defs>
<clipPath id="clip0_447_25">
<rect width="1231" height="1000" fill="white"/>
</clipPath>
</defs>
</svg>
