<svg width="1182" height="1123" viewBox="0 0 1182 1123" fill="none" xmlns="http://www.w3.org/2000/svg">
<path fill-rule="evenodd" clip-rule="evenodd" d="M234.79 138.409C332.311 63.8628 456.182 19.2614 591.001 19.2614C905.39 19.2614 1160.25 261.81 1160.25 561.01C1160.25 598.132 1156.33 634.384 1148.86 669.407L1124.62 655.329L1109.34 646.453C1108.18 652.885 1106.89 659.274 1105.47 665.621L1120.53 674.372L1144.46 688.27L1163.93 699.579C1175.73 655.254 1182 608.828 1182 561.01C1182 263.999 940.092 20.7585 633.557 0H548.443C415.121 9.02992 294.026 60.1425 199.739 139.461L219.197 150.765L243.107 164.655L258.162 173.4C263.448 169.285 268.819 165.265 274.272 161.344L259.005 152.476L234.79 138.409Z" fill="black"/>
<path fill-rule="evenodd" clip-rule="evenodd" d="M948.083 982.942C850.716 1057.67 726.938 1102.5 592.121 1102.76C277.731 1103.34 22.3659 861.274 21.7469 562.076C21.672 524.952 25.5187 488.693 32.9208 453.655L57.1855 467.688L72.4824 476.536C73.6325 470.102 74.9092 463.709 76.3142 457.363L61.2315 448.639L37.2795 434.786L17.7869 423.511C6.07538 467.86 -0.0973626 514.297 0.00116124 562.117C0.615864 859.126 243.025 1101.91 549.603 1122.09L634.717 1121.94C768.02 1112.66 889.009 1061.32 983.132 981.822L963.65 970.554L939.713 956.711L924.639 947.994C919.363 952.119 914 956.148 908.554 960.078L923.838 968.92L948.083 982.942Z" fill="black"/>
<path fill-rule="evenodd" clip-rule="evenodd" d="M591.001 60.4487C881.488 60.4487 1116.97 284.556 1116.97 561.01C1116.97 837.461 881.488 1061.57 591.001 1061.57C300.512 1061.57 65.0269 837.461 65.0269 561.01C65.0269 284.556 300.512 60.4487 591.001 60.4487Z" fill="#FDB403"/>
<mask id="mask0_27_283" style="mask-type:luminance" maskUnits="userSpaceOnUse" x="65" y="60" width="1052" height="1002">
<path d="M591.001 60.4487C881.488 60.4487 1116.97 284.556 1116.97 561.01C1116.97 837.461 881.488 1061.57 591.001 1061.57C300.512 1061.57 65.0269 837.461 65.0269 561.01C65.0269 284.556 300.512 60.4487 591.001 60.4487Z" fill="white"/>
</mask>
<g mask="url(#mask0_27_283)">
<path fill-rule="evenodd" clip-rule="evenodd" d="M748.223 1317.7L1347.18 290.271L1342.82 287.973L743.871 1315.41L748.223 1317.7ZM-165.191 835.431L433.763 -192.001L429.411 -194.299L-169.544 833.133L-165.191 835.431ZM-137.802 849.895L461.155 -177.539L456.802 -179.837L-142.154 847.597L-137.802 849.895ZM-109.782 864.686L489.172 -162.746L484.82 -165.044L-114.135 862.39L-109.782 864.686ZM-81.763 879.48L517.191 -147.952L512.839 -150.25L-86.1152 877.182L-81.763 879.48ZM-54.382 893.937L544.572 -133.495L540.22 -135.793L-58.7342 891.641L-54.382 893.937ZM-26.3628 908.731L572.591 -118.701L568.239 -120.999L-30.7148 906.433L-26.3628 908.731ZM1.6545 923.524L600.611 -103.908L596.259 -106.206L-2.69775 921.226L1.6545 923.524ZM29.6739 938.318L628.628 -89.1142L624.276 -91.4123L25.3216 936.02L29.6739 938.318ZM57.0549 952.775L656.011 -74.6569L651.659 -76.955L52.7027 950.477L57.0549 952.775ZM85.0741 967.569L684.028 -59.8633L679.676 -62.1615L80.722 965.271L85.0741 967.569ZM113.093 982.362L712.048 -45.0697L707.695 -47.3679L108.741 980.064L113.093 982.362ZM140.474 996.82L739.429 -30.6124L735.077 -32.9106L136.122 994.521L140.474 996.82ZM168.494 1011.61L767.448 -15.8189L763.096 -18.1171L164.142 1009.32L168.494 1011.61ZM196.511 1026.41L795.467 -1.02525L791.115 -3.32343L192.159 1024.11L196.511 1026.41ZM223.894 1040.86L822.848 13.4321L818.496 11.1339L219.542 1038.57L223.894 1040.86ZM252.547 1055.99L851.504 28.5597L847.152 26.2636L248.195 1053.7L252.547 1055.99ZM279.931 1070.45L878.885 43.017L874.533 40.7209L275.578 1068.15L279.931 1070.45ZM307.948 1085.24L906.904 57.8105L902.552 55.5146L303.596 1082.95L307.948 1085.24ZM335.967 1100.04L934.921 72.6042L930.569 70.3059L331.615 1097.74L335.967 1100.04ZM363.987 1114.83L962.94 87.3977L958.589 85.0995L359.634 1112.53L363.987 1114.83ZM392.004 1129.62L990.96 102.191L986.608 99.8931L387.651 1127.33L392.004 1129.62ZM419.387 1144.08L1018.34 116.649L1013.99 114.35L415.035 1141.78L419.387 1144.08ZM446.768 1158.54L1045.72 131.106L1041.37 128.808L442.416 1156.24L446.768 1158.54ZM474.151 1173L1073.11 145.563L1068.75 143.265L469.799 1170.7L474.151 1173ZM502.168 1187.79L1101.12 160.357L1096.77 158.059L497.816 1185.49L502.168 1187.79ZM529.552 1202.25L1128.51 174.814L1124.15 172.516L525.199 1199.95L529.552 1202.25ZM557.569 1217.04L1156.52 189.608L1152.17 187.309L553.217 1214.74L557.569 1217.04ZM585.588 1231.83L1184.54 204.401L1180.19 202.103L581.236 1229.54L585.588 1231.83ZM613.605 1246.63L1212.56 219.195L1208.21 216.897L609.253 1244.33L613.605 1246.63ZM641.624 1261.42L1240.58 233.988L1236.23 231.69L637.272 1259.12L641.624 1261.42ZM669.644 1276.21L1268.6 248.782L1264.25 246.484L665.292 1273.92L669.644 1276.21ZM697.661 1291.01L1296.62 263.575L1292.27 261.277L693.309 1288.71L697.661 1291.01ZM725.68 1305.8L1324.63 278.369L1320.28 276.071L721.328 1303.5L725.68 1305.8Z" fill="#FEFEFE"/>
<path fill-rule="evenodd" clip-rule="evenodd" d="M345.481 257.109L278.864 445.301C496.299 390.003 688.843 371.635 858.347 387.435L931.312 202.268C720.921 206.164 520.622 219.658 345.481 257.109ZM327.715 756.484L261.098 944.675C478.535 889.375 671.079 871.009 840.58 886.807L913.546 701.643C703.155 705.538 502.856 719.032 327.715 756.484ZM345.481 491.32L278.864 679.511C496.299 624.211 688.843 605.845 858.347 621.643L931.312 436.479C720.921 440.372 520.622 453.868 345.481 491.32Z" fill="#FEFEFE"/>
</g>
<path fill-rule="evenodd" clip-rule="evenodd" d="M591.001 44.5798C890.697 44.5798 1133.65 275.792 1133.65 561.01C1133.65 846.225 890.697 1077.44 591.001 1077.44C291.302 1077.44 48.3506 846.225 48.3506 561.01C48.3506 275.792 291.302 44.5798 591.001 44.5798ZM591.001 60.4487C881.487 60.4487 1116.97 284.556 1116.97 561.01C1116.97 837.461 881.487 1061.57 591.001 1061.57C300.512 1061.57 65.0269 837.461 65.0269 561.01C65.0269 284.556 300.512 60.4487 591.001 60.4487Z" fill="#FEFEFE"/>
</svg>
