<svg width="1000" height="1000" viewBox="0 0 1000 1000" fill="none" xmlns="http://www.w3.org/2000/svg">
<g clip-path="url(#clip0_282_2)">
<path fill-rule="evenodd" clip-rule="evenodd" d="M198.638 123.349C281.144 56.9139 385.941 17.1656 500.001 17.1656C765.982 17.1656 981.601 233.323 981.601 499.966C981.601 533.049 978.283 565.357 971.959 596.569L951.456 584.023L938.529 576.113C937.545 581.845 936.452 587.539 935.255 593.195L947.999 600.994L968.239 613.38L984.71 623.458C994.695 583.956 1000 542.582 1000 499.966C1000 235.273 795.34 18.4998 536.004 0H463.996C351.202 8.04738 248.754 53.5984 168.984 124.286L185.447 134.36L205.674 146.739L218.411 154.532C222.883 150.866 227.428 147.283 232.041 143.788L219.125 135.885L198.638 123.349Z" fill="#FEFEFE"/>
<path fill-rule="evenodd" clip-rule="evenodd" d="M802.1 875.989C719.725 942.584 615.006 982.541 500.948 982.766C234.967 983.291 18.9221 767.56 18.3984 500.918C18.335 467.833 21.5894 435.519 27.8518 404.294L48.3803 416.8L61.3218 424.685C62.2949 418.951 63.375 413.253 64.5636 407.598L51.8033 399.823L31.5394 387.477L15.0481 377.43C5.13991 416.953 -0.082371 458.337 0.000982435 500.954C0.521036 765.645 205.605 982.014 464.977 1000L536.986 999.859C649.763 991.59 752.123 945.837 831.753 874.991L815.27 864.949L795.019 852.613L782.266 844.844C777.803 848.52 773.266 852.111 768.658 855.613L781.588 863.493L802.1 875.989Z" fill="#FEFEFE"/>
<path fill-rule="evenodd" clip-rule="evenodd" d="M500 53.8711C745.759 53.8711 944.987 253.593 944.987 499.966C944.987 746.337 745.759 946.059 500 946.059C254.24 946.059 55.0142 746.337 55.0142 499.966C55.0142 253.593 254.24 53.8711 500 53.8711Z" fill="#FDB403"/>
<mask id="mask0_282_2" style="mask-type:luminance" maskUnits="userSpaceOnUse" x="55" y="53" width="890" height="894">
<path d="M500 53.8711C745.759 53.8711 944.987 253.593 944.987 499.966C944.987 746.337 745.759 946.059 500 946.059C254.24 946.059 55.0142 746.337 55.0142 499.966C55.0142 253.593 254.24 53.8711 500 53.8711Z" fill="white"/>
</mask>
<g mask="url(#mask0_282_2)">
<path fill-rule="evenodd" clip-rule="evenodd" d="M633.015 1174.32L1139.74 258.686L1136.06 256.638L629.333 1172.28L633.015 1174.32ZM-139.755 744.527L366.974 -171.11L363.292 -173.158L-143.438 742.479L-139.755 744.527ZM-116.583 757.417L390.148 -158.222L386.466 -160.27L-120.265 755.369L-116.583 757.417ZM-92.8781 770.599L413.851 -145.038L410.169 -147.086L-96.5602 768.553L-92.8781 770.599ZM-69.173 783.783L437.556 -131.854L433.874 -133.902L-72.8551 781.735L-69.173 783.783ZM-46.008 796.668L460.721 -118.97L457.039 -121.018L-49.6901 794.621L-46.008 796.668ZM-22.3032 809.851L484.426 -105.786L480.744 -107.834L-25.9851 807.803L-22.3032 809.851ZM1.40013 823.035L508.131 -92.6023L504.449 -94.6504L-2.28198 820.987L1.40013 823.035ZM25.1052 836.219L531.834 -79.4184L528.152 -81.4665L21.4231 834.171L25.1052 836.219ZM48.2702 849.103L555.001 -66.5342L551.319 -68.5823L44.5881 847.055L48.2702 849.103ZM71.9751 862.287L578.705 -53.3504L575.022 -55.3985L68.2931 860.239L71.9751 862.287ZM95.6801 875.471L602.409 -40.1664L598.727 -42.2145L91.998 873.423L95.6801 875.471ZM118.845 888.355L625.575 -27.2822L621.892 -29.3303L115.163 886.307L118.845 888.355ZM142.55 901.539L649.279 -14.0984L645.598 -16.1465L138.868 899.491L142.55 901.539ZM166.253 914.723L672.984 -0.914446L669.302 -2.96255L162.571 912.675L166.253 914.723ZM189.42 927.607L696.149 11.9698L692.467 9.92165L185.738 925.559L189.42 927.607ZM213.661 941.091L720.393 25.4514L716.711 23.4051L209.98 939.043L213.661 941.091ZM236.828 953.975L743.558 38.3356L739.876 36.2893L233.146 951.927L236.828 953.975ZM260.532 967.159L767.263 51.5194L763.581 49.4733L256.85 965.111L260.532 967.159ZM284.237 980.343L790.966 64.7034L787.284 62.6552L280.554 978.295L284.237 980.343ZM307.942 993.527L814.671 77.8872L810.989 75.8391L304.26 991.478L307.942 993.527ZM331.645 1006.71L838.376 91.0711L834.694 89.023L327.963 1004.66L331.645 1006.71ZM354.812 1019.59L861.541 103.955L857.859 101.907L351.13 1017.55L354.812 1019.59ZM377.977 1032.48L884.708 116.839L881.024 114.791L374.295 1030.43L377.977 1032.48ZM401.143 1045.36L907.873 129.724L904.191 127.676L397.461 1043.32L401.143 1045.36ZM424.847 1058.55L931.578 142.908L927.896 140.86L421.165 1056.5L424.847 1058.55ZM448.013 1071.43L954.743 155.792L951.061 153.744L444.331 1069.38L448.013 1071.43ZM471.717 1084.61L978.448 168.976L974.766 166.928L468.035 1082.57L471.717 1084.61ZM495.422 1097.8L1002.15 182.16L998.469 180.111L491.74 1095.75L495.422 1097.8ZM519.125 1110.98L1025.86 195.343L1022.17 193.295L515.443 1108.93L519.125 1110.98ZM542.83 1124.16L1049.56 208.527L1045.88 206.479L539.148 1122.12L542.83 1124.16ZM566.535 1137.35L1073.26 221.711L1069.58 219.663L562.853 1135.3L566.535 1137.35ZM590.238 1150.53L1096.97 234.895L1093.29 232.847L586.556 1148.48L590.238 1150.53ZM613.943 1163.72L1120.67 248.079L1116.99 246.031L610.261 1161.67L613.943 1163.72Z" fill="#FEFEFE"/>
<path fill-rule="evenodd" clip-rule="evenodd" d="M292.285 229.134L235.926 396.848C419.881 347.567 582.778 331.198 726.182 345.279L787.912 180.26C609.916 183.732 440.459 195.757 292.285 229.134ZM277.255 674.171L220.895 841.886C404.852 792.603 567.749 776.235 711.151 790.315L772.882 625.297C594.886 628.769 425.428 640.795 277.255 674.171ZM292.285 437.86L235.926 605.574C419.881 556.291 582.778 539.924 726.182 554.003L787.912 388.986C609.916 392.456 440.459 404.483 292.285 437.86Z" fill="#FEFEFE"/>
</g>
<path fill-rule="evenodd" clip-rule="evenodd" d="M500 39.7285C753.551 39.7285 959.095 245.782 959.095 499.966C959.095 754.147 753.551 960.201 500 960.201C246.448 960.201 40.9058 754.147 40.9058 499.966C40.9058 245.782 246.448 39.7285 500 39.7285ZM500 53.8707C745.759 53.8707 944.987 253.593 944.987 499.966C944.987 746.337 745.759 946.059 500 946.059C254.24 946.059 55.0143 746.337 55.0143 499.966C55.0143 253.593 254.24 53.8707 500 53.8707Z" fill="#FEFEFE"/>
</g>
<defs>
<clipPath id="clip0_282_2">
<rect width="1000" height="1000" fill="white"/>
</clipPath>
</defs>
</svg>
