<svg width="198" height="198" viewBox="0 0 198 198" fill="none" xmlns="http://www.w3.org/2000/svg">
<path d="M91.8724 44.0836C101.584 48.5966 112.886 62.7773 113.402 74.6239C113.453 75.7986 112.341 76.6372 111.179 76.457C61.7117 68.7867 40.4648 87.9484 26.273 126.181C23.7306 133.03 15.9491 136.532 9.33554 133.428L6.81335 132.244C1.39753 129.702 -1.36019 123.542 0.664716 117.913C13.7671 81.4851 37.0636 49.5316 90.874 43.9256C91.2141 43.8902 91.5623 43.9395 91.8724 44.0836Z" fill="url(#paint0_radial_19_3)"/>
<path d="M106.042 153.025C96.3306 148.512 85.0285 134.331 84.513 122.485C84.4619 121.31 85.5733 120.472 86.7353 120.652C136.203 128.322 157.45 109.16 171.642 70.9277C174.184 64.0784 181.966 60.5765 188.579 63.6809L191.101 64.8647C196.517 67.4069 199.275 73.5665 197.25 79.1962C184.148 115.624 160.851 147.577 107.041 153.183C106.701 153.219 106.352 153.169 106.042 153.025Z" fill="url(#paint1_radial_19_3)"/>
<path d="M44.8027 106.042C49.3157 96.3306 63.4963 85.0285 75.3429 84.513C76.5177 84.4619 77.3562 85.5733 77.1761 86.7353C69.5058 136.203 88.6674 157.45 126.9 171.642C133.749 174.184 137.251 181.966 134.147 188.579L132.963 191.101C130.421 196.517 124.261 199.275 118.632 197.25C82.2042 184.148 50.2507 160.851 44.6446 107.041C44.6092 106.701 44.6586 106.352 44.8027 106.042Z" fill="url(#paint2_radial_19_3)"/>
<path d="M153.744 91.8724C149.231 101.584 135.051 112.886 123.204 113.402C122.029 113.453 121.191 112.341 121.371 111.179C129.041 61.7117 109.879 40.4648 71.6467 26.273C64.7975 23.7306 61.2956 15.9491 64.3999 9.33554L65.5838 6.81335C68.1259 1.39753 74.2856 -1.36019 79.9152 0.664716C116.343 13.7671 148.296 37.0636 153.902 90.874C153.938 91.2141 153.888 91.5623 153.744 91.8724Z" fill="url(#paint3_radial_19_3)"/>
<path d="M96.0033 82.4203C96.9697 79.8085 100.664 79.8085 101.63 82.4203L104.82 91.0409C105.124 91.8621 105.772 92.5095 106.593 92.8134L115.213 96.0033C117.825 96.9697 117.825 100.664 115.213 101.63L106.593 104.82C105.772 105.124 105.124 105.772 104.82 106.593L101.63 115.213C100.664 117.825 96.9697 117.825 96.0033 115.213L92.8134 106.593C92.5095 105.772 91.8621 105.124 91.0409 104.82L82.4203 101.63C79.8085 100.664 79.8085 96.9697 82.4203 96.0033L91.0409 92.8134C91.8621 92.5095 92.5095 91.8621 92.8134 91.0409L96.0033 82.4203Z" fill="#F54900"/>
<defs>
<radialGradient id="paint0_radial_19_3" cx="0" cy="0" r="1" gradientTransform="matrix(79.1152 -77.9362 77.9362 103.007 102.082 105.289)" gradientUnits="userSpaceOnUse">
<stop stop-color="#2B7FFF"/>
<stop offset="1" stop-color="#193CB8"/>
</radialGradient>
<radialGradient id="paint1_radial_19_3" cx="0" cy="0" r="1" gradientTransform="matrix(79.1152 -77.9362 77.9362 103.007 102.082 105.289)" gradientUnits="userSpaceOnUse">
<stop stop-color="#2B7FFF"/>
<stop offset="1" stop-color="#193CB8"/>
</radialGradient>
<radialGradient id="paint2_radial_19_3" cx="0" cy="0" r="1" gradientTransform="matrix(79.1152 -77.9362 77.9362 103.007 102.082 105.289)" gradientUnits="userSpaceOnUse">
<stop stop-color="#2B7FFF"/>
<stop offset="1" stop-color="#193CB8"/>
</radialGradient>
<radialGradient id="paint3_radial_19_3" cx="0" cy="0" r="1" gradientTransform="matrix(79.1152 -77.9362 77.9362 103.007 102.082 105.289)" gradientUnits="userSpaceOnUse">
<stop stop-color="#2B7FFF"/>
<stop offset="1" stop-color="#193CB8"/>
</radialGradient>
</defs>
</svg>
