<svg width="1000" height="1000" viewBox="0 0 1000 1000" fill="none" xmlns="http://www.w3.org/2000/svg">
<g clip-path="url(#clip0_282_17)">
<path d="M464.202 222.741C513.272 245.543 570.378 317.194 572.983 377.051C573.241 382.986 567.625 387.223 561.754 386.313C311.81 347.558 204.456 444.375 132.749 637.553C119.903 672.16 80.5858 689.854 47.1695 674.169L34.4257 668.187C7.06128 655.343 -6.87259 624.22 3.3586 595.775C69.5607 411.719 187.271 250.268 459.157 221.942C460.876 221.763 462.635 222.012 464.202 222.741Z" fill="url(#paint0_radial_282_17)"/>
<path d="M535.798 773.188C486.728 750.385 429.622 678.734 427.018 618.877C426.759 612.942 432.375 608.705 438.246 609.615C688.19 648.371 795.544 551.553 867.251 358.375C880.097 323.768 919.414 306.074 952.83 321.759L965.574 327.741C992.939 340.586 1006.87 371.708 996.641 400.153C930.439 584.21 812.729 745.661 540.843 773.986C539.124 774.165 537.365 773.916 535.798 773.188Z" fill="url(#paint1_radial_282_17)"/>
<path d="M226.374 535.798C249.176 486.728 320.827 429.622 380.684 427.018C386.619 426.759 390.857 432.375 389.946 438.246C351.191 688.19 448.008 795.544 641.186 867.251C675.794 880.097 693.487 919.414 677.802 952.83L671.82 965.574C658.976 992.939 627.853 1006.87 599.408 996.641C415.352 930.439 253.901 812.729 225.575 540.843C225.396 539.124 225.646 537.365 226.374 535.798Z" fill="url(#paint2_radial_282_17)"/>
<path d="M776.821 464.202C754.018 513.272 682.368 570.378 622.511 572.983C616.575 573.241 612.338 567.625 613.248 561.754C652.004 311.81 555.186 204.456 362.008 132.749C327.401 119.903 309.707 80.5858 325.392 47.1695L331.374 34.4257C344.219 7.06128 375.341 -6.87259 403.786 3.3586C587.843 69.5607 749.294 187.271 777.619 459.157C777.798 460.876 777.549 462.635 776.821 464.202Z" fill="url(#paint3_radial_282_17)"/>
<path d="M485.074 416.444C489.957 403.247 508.623 403.247 513.506 416.444L529.624 460.001C531.159 464.15 534.43 467.421 538.579 468.957L582.136 485.074C595.333 489.957 595.333 508.623 582.136 513.506L538.579 529.624C534.43 531.159 531.159 534.43 529.624 538.579L513.506 582.136C508.623 595.333 489.957 595.333 485.074 582.136L468.957 538.579C467.421 534.43 464.15 531.159 460.001 529.624L416.444 513.506C403.247 508.623 403.247 489.957 416.444 485.074L460.001 468.957C464.15 467.421 467.421 464.15 468.957 460.001L485.074 416.444Z" fill="#F54900"/>
</g>
<defs>
<radialGradient id="paint0_radial_282_17" cx="0" cy="0" r="1" gradientTransform="matrix(399.744 -393.787 393.787 520.464 515.786 531.994)" gradientUnits="userSpaceOnUse">
<stop stop-color="#2B7FFF"/>
<stop offset="1" stop-color="#193CB8"/>
</radialGradient>
<radialGradient id="paint1_radial_282_17" cx="0" cy="0" r="1" gradientTransform="matrix(399.744 -393.787 393.787 520.464 515.786 531.994)" gradientUnits="userSpaceOnUse">
<stop stop-color="#2B7FFF"/>
<stop offset="1" stop-color="#193CB8"/>
</radialGradient>
<radialGradient id="paint2_radial_282_17" cx="0" cy="0" r="1" gradientTransform="matrix(399.744 -393.787 393.787 520.464 515.786 531.994)" gradientUnits="userSpaceOnUse">
<stop stop-color="#2B7FFF"/>
<stop offset="1" stop-color="#193CB8"/>
</radialGradient>
<radialGradient id="paint3_radial_282_17" cx="0" cy="0" r="1" gradientTransform="matrix(399.744 -393.787 393.787 520.464 515.786 531.994)" gradientUnits="userSpaceOnUse">
<stop stop-color="#2B7FFF"/>
<stop offset="1" stop-color="#193CB8"/>
</radialGradient>
<clipPath id="clip0_282_17">
<rect width="1000" height="1000" fill="white"/>
</clipPath>
</defs>
</svg>
