<svg width="1540" height="1000" viewBox="0 0 1540 1000" fill="none" xmlns="http://www.w3.org/2000/svg">
<g clip-path="url(#clip0_282_33)">
<path d="M703.717 0C714.56 8.48214 728.337 11.5434 741.541 14.0784C749.546 10.6027 757.056 6.09056 764.918 2.29592C774.788 14.4133 784.739 26.4668 794.737 38.4885C798.277 43.1601 804.575 42.3788 809.742 42.4904C813.154 48.8361 816.328 55.3093 819.23 61.9101C819.437 60.7781 819.868 58.514 820.075 57.382C823.424 60.1882 827.841 57.5096 831.636 59.0721C840.279 61.6231 849.607 61.0013 858.01 64.4611C866.286 67.7456 872.33 74.4898 877.959 81.1065C888.101 91.6932 904.732 88.5045 915.847 97.3055C920.056 100.032 921.603 105.405 926.068 107.86C937.693 115.019 952.076 113.983 964.562 118.893C991.096 128.587 1017.79 138.6 1042.22 152.966C1056.12 160.651 1063 175.813 1074.62 186.065C1091.86 183.371 1109.05 179.544 1126.62 180.469C1130.5 175 1134.39 169.563 1138.34 164.158C1142.69 165.147 1147.14 165.816 1151.64 165.928C1182.37 166.789 1213.1 164.206 1243.82 165.529C1255.82 166.024 1268.78 170.871 1274.68 182.015C1282.92 197.577 1283.18 216.279 1292.86 231.25C1292.7 211.256 1292.6 191.167 1294.93 171.269C1296.27 161.416 1297.96 150.813 1304.79 143.08C1309.2 138.154 1313.38 132.828 1315.36 126.419C1319.78 113.042 1316.97 98.7883 1318.26 85.0447C1319.44 81.537 1322.66 75.2392 1326.79 79.4484C1335.4 68.0007 1337.25 53.4598 1343.42 40.8323C1346.76 41.1831 1350.1 41.5976 1353.44 42.1556C1362.73 50.9407 1373.32 58.227 1383.16 66.3903C1383.67 64.8597 1384.21 63.345 1384.77 61.8304C1386.61 60.8578 1388.49 59.9171 1390.37 58.9605C1392.47 67.6499 1396.63 75.9885 1403.46 81.9196C1413.94 91.1671 1426.07 98.4535 1435.85 108.53C1439.53 111.958 1441.48 116.98 1440.25 122.003C1436.88 141.901 1443.64 161.543 1450.53 179.943C1452.8 185.539 1454.61 191.438 1458.09 196.445C1460.1 199.378 1464.02 198.916 1467.12 199.458C1473.3 199.872 1479.24 201.786 1484.96 204.114C1490.51 231.122 1495.66 258.466 1495.58 286.161C1495.44 300.223 1493.92 315.21 1485.61 327.073C1483.86 330.182 1479.79 333.769 1482.42 337.516C1488.42 348.358 1500.7 352.902 1510.62 359.311C1507.92 365.976 1504.97 372.784 1499.76 377.918C1495.42 382.557 1489.52 386.655 1488.58 393.415C1487.1 402.806 1489.28 412.261 1490.97 421.492C1483.19 426.148 1474.79 429.688 1467.15 434.55C1449.99 445.137 1436.29 460.459 1424.97 476.961C1420.11 484.072 1416.14 492.522 1417.32 501.371C1418.96 515.067 1429.71 525.143 1433.55 538.106C1437.04 546.7 1432.07 556.585 1437.2 564.764C1444.68 577.216 1458.54 583.785 1471.28 589.605C1480.35 593.623 1489.09 600.032 1492.81 609.566C1497.75 622.29 1495.18 636.272 1497.75 649.458C1499.57 659.949 1505 670.137 1514.11 676.005C1516.49 688.218 1516.95 700.749 1518.45 713.106C1523.72 716.422 1529.51 718.862 1534.87 722.05C1539.54 725.733 1540.53 732.717 1539.77 738.249C1535.94 741.422 1530.61 742.634 1527.66 746.923C1521.03 754.114 1519.12 764.445 1512.32 771.413C1499.31 779.704 1484.98 786.113 1472.78 795.631C1464.04 807.956 1464.17 823.964 1456.86 836.99C1455.46 832.015 1450.52 830.309 1446.48 828.077C1442.43 825.606 1437.49 826.116 1433.01 825.478C1426.82 834.407 1422.82 844.579 1417.05 853.779C1410.84 853.237 1404.5 852.726 1398.76 850.16C1393.19 847.848 1388.49 843.591 1382.44 842.538C1376.34 841.566 1370.13 841.98 1363.99 841.948C1363.28 846.716 1359.59 850.143 1357.63 854.385C1353.6 862.675 1351.35 872.019 1345.08 879.066C1342.77 874.761 1341.19 870.041 1338.35 866.071C1325.95 855.772 1310.61 847.911 1301.79 833.96C1297.07 822.178 1289.06 811.958 1279.22 804.002C1274.9 800.717 1272.14 795.982 1269.51 791.358C1264.43 793.638 1258.89 794.372 1253.42 794.978C1245.79 795.902 1240.11 801.579 1234.02 805.708C1224.47 812.946 1212.83 818.033 1200.66 817.73C1192.1 817.921 1184.28 813.983 1176.56 810.826C1174.95 816.725 1174.22 823.214 1170.5 828.269C1168.29 831.154 1164.35 830.198 1161.42 829.273C1147.83 824.41 1133.11 821.221 1121.89 811.559C1108.52 800.287 1097.39 785.396 1080.33 779.417C1074.92 777.822 1069.26 777.423 1063.71 776.786C1059.7 764.764 1056.33 752.535 1052.5 740.466C1050.97 736.145 1049.12 731.362 1044.96 728.954C1040.59 726.451 1035.7 724.729 1031.98 721.221C1022.72 713.138 1018.11 701.307 1009.85 692.363C1004.76 686.464 998.208 681.649 990.554 679.799C981.289 677.439 971.801 675.462 963.382 670.727L964.067 668.766C965.024 666.024 965.439 663.138 965.837 660.284C971.674 659.359 976.633 656.011 981.528 652.95C981.592 652.105 981.704 650.431 981.768 649.586C984.112 640.864 982.836 631.569 982.31 622.672C978.578 617.044 972.949 612.771 968.915 607.254C966.14 602.95 960.735 602.742 956.174 602.296C956.206 601.419 956.254 599.697 956.286 598.836C985.674 599.554 1015.08 598.9 1044.48 599.187C1052.57 599.346 1061.47 598.565 1067.4 592.363C1070.65 595.344 1073.9 598.629 1078.19 600.048C1089.91 604.161 1102.48 602.152 1114.61 602.631C1125.19 602.663 1137.11 603.364 1145.98 596.556C1153.62 590.769 1155.74 580.692 1155.91 571.62C1156.01 555.628 1155.8 539.636 1155.99 523.645C1168.4 542.219 1180.31 561.097 1192.53 579.783C1197.25 586.958 1201.49 595.313 1209.64 599.171C1220.89 604.209 1233.52 602.264 1245.47 602.599C1257.43 602.392 1270.57 604.209 1281.27 597.64C1289.97 592.14 1292.25 581.123 1292.48 571.54C1292.46 507.781 1292.46 444.037 1292.46 380.277C1292.4 371.126 1293.21 361.751 1290.34 352.918C1288.38 345.807 1282.6 339.923 1275.56 337.803C1264.27 334.152 1252.26 335.985 1240.62 335.539C1229.81 335.539 1217.61 334.646 1208.58 341.709C1200.71 347.656 1199.11 358.243 1198.95 367.459C1198.97 382.557 1198.95 397.64 1199 412.739C1185.41 391.55 1171.97 370.281 1158.31 349.155C1154.06 342.347 1146.94 337.516 1138.95 336.448C1127.24 334.598 1115.33 335.985 1103.55 335.539C1092.74 335.539 1080.43 334.726 1071.51 341.996C1063.86 348.023 1062.15 358.371 1062.02 367.554C1062.06 418.16 1062.04 468.766 1062.02 519.372C1058.02 516.199 1054.05 513.01 1050.11 509.774C1050.24 472.369 1050.03 434.949 1050.21 397.529C1053.44 393.925 1056.09 389.636 1056.36 384.662C1056.98 376.228 1057.37 367.586 1055.66 359.263C1055.01 355.277 1051.96 352.439 1049.35 349.633C1047.75 342.554 1042.79 336.99 1036.37 333.865C1042.46 333.036 1047.23 329.225 1050.24 323.996C1054.42 322.114 1058.99 319.77 1060.29 314.971C1061.56 310.252 1065.31 307.095 1068.04 303.284C1069.74 298.055 1070.44 292.522 1072.68 287.468C1075.15 281.904 1072.15 275.909 1073.36 270.153C1075.04 262.962 1069.71 256.856 1069.34 249.825C1069.09 244.834 1065.45 241.342 1061.99 238.249C1060.65 231.92 1056.2 227.073 1050.13 224.984C1047.8 222.019 1045.87 218.16 1041.98 217.044C1037.71 215.737 1033.53 214.174 1029.89 211.543C1025.99 208.546 1020.88 208.992 1016.29 209.407C1012 208.402 1007.57 206.378 1003.15 207.876C996.199 210.332 987.939 207.334 981.943 212.42C978.323 215.21 973.731 215.928 969.649 217.714C965.869 220.36 963.828 225 959.443 226.929C955.871 228.508 953.671 231.68 952.363 235.252C950.481 240.593 944.087 243.351 943.991 249.458C943.513 254.672 941.249 259.375 939.702 264.286C939.303 269.483 940.834 274.681 939.957 279.911C938.139 274.139 936.832 267.283 930.9 264.254C921.779 259.79 910.585 260.587 901.655 265.195C891.96 259.997 879.841 260.029 870.145 265.179C861.439 260.284 851.345 261.049 841.953 263.074C832.895 261.113 823.503 260.571 814.701 263.999C809.024 262.532 803.348 260.571 797.416 260.635C791.898 260.714 786.7 262.819 781.262 263.457C776.447 263.138 771.838 261.32 767.007 261.32C762.015 261.145 757.2 262.628 752.432 263.887C745.751 262.229 738.926 259.821 731.941 260.906C726.504 261.448 721.146 264.206 715.644 262.659C706.316 260.555 696.733 261.623 687.277 261.384C681.121 260.922 675.237 264.509 669.13 263.106C658.925 260.73 648.273 260.937 637.924 261.99C632.932 262.357 629.026 265.545 625.597 268.894C614.196 259.534 598.186 258.976 584.76 263.903C577.727 261.798 570.281 260.348 563.041 262.372C557.141 264.19 551.321 261.4 545.405 261.352C540.461 261.145 535.694 262.691 530.974 263.951C519.03 260.379 506.512 261.272 494.25 261.91C482.593 261.416 470.921 260.969 459.28 261.83C454.417 262.309 449.585 261.559 444.769 261.209C441.74 257.653 438.63 253.332 433.671 252.567C428.345 251.69 422.604 251.116 418.395 247.337C409.449 239.748 406.212 227.631 405.112 216.39C410.198 214.318 415.349 212.42 420.611 210.81C431.279 207.892 438.614 198.693 448.565 194.372C462.182 190.848 476.47 188.76 488.94 181.856C494.362 178.715 500.804 179.018 506.847 178.571C508.761 171.604 509.845 163.951 514.804 158.339C518.599 154.05 522.044 149.442 524.802 144.404C520.975 137.452 517.037 130.564 513.289 123.581C510.148 118.224 511.503 111.767 513.401 106.25C529.22 105.373 545.054 104.416 560.888 103.46L560.904 102.439L560.92 101.323L561.048 103.492C574.57 102.918 588.682 98.8042 598.186 88.6958C608.981 77.6148 612.745 62.1811 618.517 48.294C621.451 40.8642 627.24 35.2041 631.944 28.9222C647.89 30.1818 663.804 31.8878 679.734 33.3706C686.655 21.4924 695.25 10.794 703.717 0ZM1453.58 826.945C1452.69 828.874 1453.8 832.047 1456.15 832.366C1459.61 831.505 1456.24 825.144 1453.58 826.945Z" fill="#12B361"/>
<path d="M938.793 281.266C939.861 287.325 943.401 292.602 944.071 298.756C941.504 297.927 938.937 297.066 936.401 296.205C937.246 291.231 938.123 286.256 938.793 281.266Z" fill="#12B361"/>
<path d="M950.928 308.211C951.773 315.37 955.839 322.178 963.238 323.996C965.933 329.401 970.876 333.402 977.111 333.626C970.892 335.172 965.885 340.083 964.291 346.285C963.127 351.084 957.29 352.886 956.429 357.876C953.575 368.256 953.591 379.448 956.445 389.828C957.083 392.793 959.443 394.866 961.42 397.003C961.612 434.407 961.691 471.827 961.389 509.216C959.029 512.962 954.675 515.003 951.247 517.698C951.199 469.212 951.199 420.743 951.247 372.274C951.502 364.477 950.848 356.473 947.723 349.235C945.379 344.133 940.738 340.705 935.939 338.074C940.93 336.496 945.793 333.434 947.914 328.444C950.178 321.971 951.295 315.067 950.928 308.211Z" fill="#12B361"/>
<path d="M846.785 338.728C857.389 337.691 868.981 340.88 878.549 334.662C878.98 335.108 879.857 335.985 880.287 336.416C872.202 337.404 864.5 342.108 860.976 349.601C858.712 355.246 857.692 361.368 857.707 367.443C857.755 382.51 857.707 397.577 857.739 412.643C844.106 391.534 830.743 370.265 817.077 349.171C813.904 343.894 808.817 340.306 803.443 337.516C807.765 335.443 812.166 337.946 816.519 338.552C822.307 339.493 828.096 338.058 833.661 336.559C837.95 337.644 842.288 339.047 846.785 338.728Z" fill="#12B361"/>
<path d="M730.171 339.86C730.793 339.621 732.021 339.126 732.643 338.871L733.169 340.099L732.244 340.992C731.734 340.721 730.698 340.147 730.171 339.86Z" fill="#12B361"/>
<path d="M485.145 52.7105C499.305 51.6104 510.196 39.1104 524.675 39.2539C535.295 39.4611 543.683 47.2099 550.045 54.9426C556.152 64.3655 555.706 76.1639 554.143 86.8463C552.915 93.1442 558.13 97.4809 560.904 102.439L560.888 103.46C545.054 104.416 529.22 105.373 513.401 106.25C511.503 111.767 510.148 118.224 513.289 123.581C517.037 130.564 520.975 137.452 524.802 144.404C522.044 149.442 518.599 154.05 514.804 158.339C509.845 163.951 508.761 171.604 506.847 178.571C500.804 179.018 494.362 178.715 488.94 181.856C476.47 188.76 462.182 190.848 448.565 194.372C438.614 198.693 431.279 207.892 420.611 210.81C415.349 212.42 410.198 214.318 405.112 216.39C406.212 227.631 409.449 239.748 418.395 247.337C422.604 251.116 428.345 251.69 433.671 252.567C438.63 253.332 441.74 257.653 444.769 261.209C439.22 261.687 433.719 264.365 428.122 262.835C415.684 260.746 402.353 259.981 390.266 264.254C384.175 262.548 378.019 260.348 371.593 260.682C364.465 261.081 357.593 263.297 351.087 266.135C338.505 259.008 322.623 259.136 309.898 265.784C302.053 270.281 295.897 277.966 294.064 286.91C291.799 297.816 288.18 309.391 292.517 320.297C296.87 333.801 312.019 340.131 325.302 339.445C332.286 338.887 338.999 336.687 345.505 334.216C356.955 340.768 370.7 340.482 382.883 336.225C393.041 340.035 403.979 338.425 414.552 338.823C404.697 343.973 400.854 355.198 400.886 365.721C400.822 412.532 400.918 459.359 400.854 506.17C400.551 509.71 400.966 514.126 397.936 516.661C393.631 518.351 387.332 518.224 384.892 513.568C381.193 507.637 379.375 500.494 374.288 495.456C368.037 488.855 357.959 486.304 349.253 488.839C339.191 491.295 329.639 495.392 319.832 498.677C311.54 501.77 302.403 503.795 295.77 510.061C288.323 516.693 286.107 527.886 289.28 537.165C295.594 559.247 309.914 579.289 329.496 591.486C341.902 599.777 356.652 603.38 371.147 605.915C390.138 608.785 409.688 607.541 428.233 602.615C449.984 597.656 470.076 584.455 482.147 565.529C490.072 554.098 493.803 540.466 496.403 526.961C500.692 550.973 514.39 573.437 534.801 587.054C549.503 597.816 567.474 602.615 585.206 605.628C611.23 609.662 638.211 606.888 662.975 597.991C691.135 587.341 714.353 562.596 720.317 532.749C721.433 547.082 720.269 561.464 721.018 575.813C721.624 584.758 725.403 594.18 733.711 598.581C744.491 604.098 756.961 602.376 768.617 602.615C780.098 602.439 792.632 604.018 802.933 597.88C811.847 592.363 814.621 581.33 814.685 571.492C814.749 555.533 814.589 539.557 814.733 523.581C829.212 545.376 843.149 567.506 857.548 589.334C861.678 595.743 868.359 600.383 875.934 601.563C888.946 603.747 902.229 602.089 915.368 602.663C926.116 603.253 937.103 600.781 945.777 594.181C948.472 597.433 952.714 597.29 956.286 598.836C956.254 599.697 956.206 601.419 956.174 602.296C960.735 602.742 966.14 602.95 968.915 607.254C972.949 612.771 978.578 617.044 982.31 622.672C982.836 631.569 984.112 640.864 981.768 649.586C981.704 650.431 981.592 652.105 981.528 652.95C976.633 656.011 971.674 659.359 965.837 660.284C965.439 663.138 965.024 666.024 964.067 668.766C957.96 667.49 951.757 671.237 945.889 667.921C941.52 672.034 937.438 676.945 931.553 678.874C922.082 682.095 911.908 682.015 902.261 684.439C896.408 685.842 891.609 689.7 885.964 691.566C863.767 697.848 840.438 688.584 818.289 695.01C813.585 696.221 808.594 697.848 803.842 695.887C792.122 691.805 782.602 682.605 770.212 680.182C767.437 679.975 763.323 680.198 762.621 683.594C758.029 701.722 759.464 720.775 763.227 738.919C765.077 749.442 768.346 759.933 767.389 770.743C759.4 771.604 751.363 772.003 743.359 772.656C740.504 796.652 731.702 819.85 717.845 839.636C713.571 845.36 707.863 851.626 700.081 851.419C696.717 851.865 692.602 850.431 689.955 853.157C681.823 861.767 681.329 874.585 674.775 884.12C668.827 891.263 659.18 893.192 651.175 897.114C637.365 903.125 626.745 914.254 617.56 925.877C599.541 945.631 581.586 965.466 563.408 985.061C553.569 991.853 540.892 986.559 532.6 979.735C528.63 975.829 522.618 976.77 517.595 975.893C516.287 979.687 515.873 983.674 515.873 987.675C515.857 992.714 512.157 996.588 508.904 1000C503.945 996.716 498.97 992.73 496.961 986.926C494.888 982.414 494.393 975.829 488.796 974.235C477.491 971.301 465.738 973.98 454.337 974.888C454.528 961.958 458.228 949.251 464.255 937.883C468.082 929.975 473.711 921.907 472.181 912.644C470.187 897.066 466.153 881.856 463.059 866.47C460.699 857.605 468.832 848.294 463.889 839.748C458.116 831.649 451.02 824.267 447.592 814.732C443.111 801.754 433.862 791.374 425.427 780.851C419.894 773.724 413.946 765.864 413.754 756.441C414.073 746.429 421.823 738.951 429.541 733.626C428.441 729.114 427.771 724.33 425.427 720.249C420.085 714.365 412.718 710.698 407.472 704.719C404.681 699.793 403.836 694.117 402.178 688.791C389.198 689.222 375.34 687.851 363.365 693.894C357.784 690.099 352.697 685.619 346.957 682.063C336.097 674.984 323.851 670.504 311.716 666.167C294.048 660.045 275.072 661.32 256.75 659.232C248.904 658.179 240.676 656.33 234.521 651.02C228.972 646.285 225.671 639.222 224.651 632.079C225.607 624.633 225.081 617.012 227.266 609.758C218.464 601.228 210.028 592.14 203.379 581.808C199.009 573.358 194.321 564.732 186.859 558.578C183.047 555.724 178.295 554.496 174.532 551.563C167.691 546.253 162.812 538.983 157.055 532.621C152.941 528.635 152.622 522.561 151.506 517.283C152.591 515.306 153.93 513.409 154.217 511.129C156.465 497.816 158.873 484.519 160.675 471.142C160.819 468.272 161.6 465.131 160.292 462.468C156.705 460.603 152.527 459.837 149.385 457.191C145.096 453.54 142.114 448.693 139.228 443.925C137.33 446.476 135.305 448.916 132.977 451.068C123.967 447.832 116.361 455.74 110.605 461.591C99.267 450.431 87.7221 439.493 76.2091 428.508C72.7169 424.888 68.4274 420.807 69.0653 415.29C69.2566 406.617 69.145 397.879 67.3112 389.381C66.3544 389.876 64.4728 390.848 63.5161 391.327C56.4679 384.614 55.8939 374.171 52.8482 365.418C49.643 355.58 43.8227 346.285 35.2278 340.306C30.0454 336.4 23.8264 332.573 22.0245 325.909C19.9515 317.746 24.0656 309.758 27.6056 302.647C20.6691 300.255 14.8648 294.818 13.015 287.58C9.39527 273.948 10.2882 259.375 5.21741 246.062C3.57498 240.513 -1.03342 235.698 0.210365 229.56C4.35633 228.237 8.32689 226.451 12.0104 224.155C11.6437 223.278 10.8942 221.524 10.5274 220.647C23.5075 210.443 41.3511 210.73 57.0898 211.113C62.3679 204.767 70.022 200.781 78.1864 199.777C96.7954 197.003 115.309 202.647 133.95 201.945C127.858 180.66 121.878 159.343 115.787 138.058C118.753 137.165 121.719 136.272 124.701 135.395C127.396 141.486 129.995 148.135 135.48 152.312C139.196 155.277 144.506 154.815 148.429 152.519C160.978 145.44 168.967 132.015 182.457 126.403C189.25 123.358 196.426 127.025 201.066 132.063C205.101 127.966 209.135 123.756 213.967 120.568C219.117 117.108 225.193 115.147 229.945 111.065C238.428 104.066 243.403 93.8297 252.014 86.9579C259.525 92.347 267.099 97.6403 274.578 103.109C282.391 97.1142 289.503 89.6525 298.927 86.1926C305.21 84.0083 311.142 88.0899 316.229 91.2468C322.256 95.2009 328.539 98.7086 334.869 102.137C338.346 99.8725 342.045 97.6084 344.054 93.8297C366.825 85.6027 390.537 80.5804 413.994 74.8087C426.623 71.875 439.714 73.4694 452.487 71.6199C456.665 63.2016 458.18 53.5077 464.351 46.1257C471.718 46.8591 478.24 50.4784 485.145 52.7105Z" fill="#FF6700"/>
<path d="M1000.89 236.783C1003.14 232.223 1004.84 227.423 1006.47 222.608C1008.41 227.264 1010.15 232.031 1011.84 236.798C1015.17 232.892 1018.27 228.795 1021.28 224.649C1021.71 229.656 1021.9 234.694 1022.11 239.732C1026.54 237.101 1030.63 233.976 1034.74 230.899C1033.7 235.842 1032.57 240.768 1031.71 245.759C1036.46 243.989 1041.21 242.172 1045.98 240.434C1043.61 244.93 1041.12 249.378 1038.57 253.795C1043.7 253.524 1048.84 253.205 1053.97 252.918C1050.35 256.346 1046.78 259.821 1043.69 263.744C1048.52 264.86 1053.38 265.896 1058.26 266.948C1053.7 269.388 1049.16 271.827 1044.67 274.41C1049.2 276.754 1053.73 279.161 1058.2 281.649C1053.16 282.701 1048.13 283.785 1043.18 285.092C1046.81 288.568 1050.4 292.092 1053.97 295.647C1048.82 295.36 1043.67 294.994 1038.54 294.739C1041.09 299.171 1043.59 303.651 1046.06 308.163C1041.25 306.393 1036.46 304.608 1031.66 302.87C1032.59 307.828 1033.7 312.771 1034.76 317.73C1030.64 314.764 1026.59 311.703 1022.56 308.626C1021.97 313.712 1021.62 318.814 1021.28 323.932C1018.17 319.834 1015.09 315.721 1012.06 311.575C1010.25 316.374 1008.45 321.173 1006.47 325.925C1004.83 321.142 1003.12 316.374 1000.93 311.814C997.969 315.896 994.955 319.962 991.734 323.868C991.463 318.782 991.208 313.696 990.841 308.61C986.647 311.639 982.501 314.716 978.371 317.809C979.503 312.787 980.556 307.749 981.656 302.726C976.84 304.56 972.04 306.394 967.225 308.147C969.649 303.667 972.072 299.171 974.464 294.675C969.346 295.01 964.243 295.36 959.14 295.695C962.856 292.172 966.507 288.568 969.968 284.79C964.913 283.833 959.906 282.781 954.93 281.601C959.491 279.273 964.02 276.849 968.405 274.155C963.924 271.907 959.539 269.483 955.249 266.916C960.097 265.753 964.992 264.764 969.888 263.76C966.444 260.092 962.903 256.537 959.379 252.966C964.434 253.189 969.473 253.54 974.544 253.842C972.056 249.346 969.585 244.866 967.097 240.386C971.977 242.188 976.84 244.021 981.72 245.855C980.556 240.816 979.471 235.778 978.339 230.74C982.453 233.865 986.599 236.958 990.841 239.908C991.176 235.013 991.447 230.118 991.814 225.239C995.178 228.795 998.096 232.749 1000.89 236.783Z" fill="#FF6700"/>
<path d="M576.85 335.81C590.293 341.358 606.303 340.45 618.469 332.239C624.369 338.297 633.108 339.158 641.113 338.807C631.274 343.989 627.479 355.309 627.511 365.832C627.527 409.423 627.479 452.997 627.527 496.588C627.192 502.168 628.691 508.849 624.481 513.361C618.581 518.606 609.906 517.554 602.619 517.188C596.049 517.028 590.085 511.511 590.899 504.656C590.771 459.965 590.835 415.274 590.867 370.584C591.122 363.377 590.197 356.043 587.407 349.362C584.552 343.559 579.003 339.19 572.752 337.612C574.124 337.022 575.463 336.4 576.85 335.81Z" fill="#FF6700"/>
<path d="M483.327 337.516C489.099 338.329 495.015 339.525 500.82 338.233C503.961 337.548 507.15 336.926 510.403 337.229C504.184 340.003 498.922 344.531 495.813 350.654C493.102 345.026 488.302 341.04 483.327 337.516Z" fill="#FF6700"/>
<path d="M708.022 337.5C715.421 335.475 722.645 340.003 730.171 339.86C730.698 340.147 731.734 340.721 732.244 340.992C727.62 343.304 724.67 347.864 723.027 352.615C720.428 345.647 714.895 340.242 708.022 337.5Z" fill="#FF6700"/>
<path d="M981.943 212.42C987.939 207.334 996.199 210.332 1003.15 207.876C1007.57 206.378 1012 208.402 1016.29 209.407C1020.88 208.992 1025.99 208.546 1029.89 211.543C1033.53 214.174 1037.71 215.737 1041.98 217.044C1045.87 218.16 1047.8 222.019 1050.13 224.984C1056.2 227.073 1060.65 231.92 1061.99 238.249C1065.45 241.342 1069.09 244.834 1069.34 249.825C1069.71 256.856 1075.04 262.962 1073.36 270.153C1072.15 275.909 1075.15 281.904 1072.68 287.468C1070.44 292.522 1069.74 298.055 1068.04 303.284C1065.31 307.095 1061.56 310.252 1060.29 314.971C1058.99 319.77 1054.42 322.114 1050.24 323.996C1047.23 329.225 1042.46 333.036 1036.37 333.865C1042.79 336.99 1047.75 342.554 1049.35 349.633C1051.96 352.439 1055.01 355.277 1055.66 359.263C1057.37 367.586 1056.98 376.228 1056.36 384.662C1056.09 389.636 1053.44 393.925 1050.21 397.529C1050.03 434.949 1050.24 472.369 1050.11 509.774C1054.05 513.01 1058.02 516.199 1062.02 519.372C1062.04 468.766 1062.06 418.16 1062.02 367.554C1062.15 358.371 1063.86 348.023 1071.51 341.996C1080.43 334.726 1092.74 335.539 1103.55 335.539C1115.33 335.985 1127.24 334.598 1138.95 336.448C1146.94 337.516 1154.06 342.347 1158.31 349.155C1171.97 370.281 1185.41 391.55 1199 412.739C1198.95 397.64 1198.97 382.557 1198.95 367.459C1199.11 358.243 1200.71 347.656 1208.58 341.709C1217.61 334.646 1229.81 335.539 1240.62 335.539C1252.26 335.985 1264.27 334.152 1275.56 337.803C1282.6 339.923 1288.38 345.807 1290.34 352.918C1293.21 361.751 1292.4 371.126 1292.46 380.277C1292.46 444.037 1292.46 507.781 1292.48 571.54C1292.25 581.123 1289.97 592.14 1281.27 597.64C1270.57 604.209 1257.43 602.392 1245.47 602.599C1233.52 602.264 1220.89 604.209 1209.64 599.171C1201.49 595.313 1197.25 586.958 1192.53 579.783C1180.31 561.097 1168.4 542.219 1155.99 523.645C1155.8 539.636 1156.01 555.628 1155.91 571.62C1155.74 580.692 1153.62 590.769 1145.98 596.556C1137.11 603.364 1125.19 602.663 1114.61 602.631C1102.48 602.152 1089.91 604.161 1078.19 600.048C1073.9 598.629 1070.65 595.344 1067.4 592.363C1061.47 598.565 1052.57 599.346 1044.48 599.187C1015.08 598.9 985.674 599.554 956.286 598.836C952.714 597.29 948.472 597.433 945.777 594.181C937.103 600.781 926.116 603.253 915.368 602.663C902.229 602.089 888.946 603.747 875.934 601.563C868.359 600.383 861.678 595.743 857.548 589.334C843.149 567.506 829.212 545.376 814.733 523.581C814.589 539.557 814.749 555.533 814.685 571.492C814.621 581.33 811.847 592.363 802.933 597.88C792.632 604.018 780.098 602.439 768.617 602.615C756.961 602.376 744.491 604.098 733.711 598.581C725.403 594.18 721.624 584.758 721.018 575.813C720.269 561.464 721.433 547.082 720.317 532.749C714.353 562.596 691.135 587.341 662.975 597.991C638.211 606.888 611.23 609.662 585.206 605.628C567.474 602.615 549.503 597.816 534.801 587.054C514.39 573.437 500.692 550.973 496.403 526.961C493.803 540.466 490.072 554.098 482.147 565.529C470.076 584.455 449.984 597.656 428.233 602.615C409.688 607.541 390.138 608.785 371.147 605.915C356.652 603.38 341.902 599.777 329.496 591.486C309.914 579.289 295.594 559.247 289.28 537.165C286.107 527.886 288.323 516.693 295.77 510.061C302.403 503.795 311.54 501.77 319.832 498.677C329.639 495.392 339.191 491.295 349.253 488.839C357.959 486.304 368.037 488.855 374.288 495.456C379.375 500.494 381.193 507.637 384.892 513.568C387.332 518.224 393.631 518.351 397.936 516.661C400.966 514.126 400.551 509.71 400.854 506.17C400.918 459.359 400.822 412.532 400.886 365.721C400.854 355.198 404.697 343.973 414.552 338.823C403.979 338.425 393.041 340.035 382.883 336.225C370.7 340.482 356.955 340.768 345.505 334.216C338.999 336.687 332.286 338.887 325.302 339.445C312.019 340.131 296.87 333.801 292.517 320.297C288.18 309.391 291.799 297.816 294.064 286.91C295.897 277.966 302.053 270.281 309.898 265.784C322.623 259.136 338.505 259.008 351.087 266.135C357.593 263.297 364.465 261.081 371.593 260.682C378.019 260.348 384.175 262.548 390.266 264.254C402.353 259.981 415.684 260.746 428.122 262.835C433.719 264.365 439.22 261.687 444.769 261.209C449.585 261.559 454.417 262.309 459.28 261.83C470.921 260.969 482.593 261.416 494.25 261.91C506.512 261.272 519.03 260.379 530.974 263.951C535.694 262.691 540.461 261.145 545.405 261.352C551.321 261.4 557.141 264.19 563.041 262.372C570.281 260.348 577.727 261.798 584.76 263.903C598.186 258.976 614.196 259.534 625.597 268.894C629.026 265.545 632.932 262.357 637.924 261.99C648.273 260.937 658.925 260.73 669.13 263.106C675.237 264.509 681.121 260.922 687.277 261.384C696.733 261.623 706.316 260.555 715.644 262.659C721.146 264.206 726.504 261.448 731.941 260.906C738.926 259.821 745.751 262.229 752.432 263.887C757.2 262.628 762.015 261.145 767.007 261.32C771.838 261.32 776.447 263.138 781.262 263.457C786.7 262.819 791.898 260.714 797.416 260.635C803.348 260.571 809.024 262.532 814.701 263.999C823.503 260.571 832.895 261.113 841.953 263.074C851.345 261.049 861.439 260.284 870.145 265.179C879.841 260.029 891.96 259.997 901.655 265.195C910.585 260.587 921.779 259.79 930.9 264.254C936.832 267.283 938.139 274.139 939.957 279.911C940.834 274.681 939.303 269.483 939.702 264.286C941.249 259.375 943.513 254.672 943.991 249.458C944.087 243.351 950.481 240.593 952.363 235.252C953.671 231.68 955.871 228.508 959.443 226.929C963.828 225 965.869 220.36 969.649 217.714C973.731 215.928 978.323 215.21 981.943 212.42ZM1000.89 236.783C998.096 232.749 995.178 228.795 991.814 225.239C991.447 230.118 991.176 235.013 990.841 239.908C986.599 236.958 982.453 233.865 978.339 230.74C979.471 235.778 980.556 240.816 981.72 245.855C976.84 244.021 971.977 242.188 967.097 240.386C969.585 244.866 972.056 249.346 974.544 253.842C969.473 253.54 964.434 253.189 959.379 252.966C962.903 256.537 966.444 260.092 969.888 263.76C964.992 264.764 960.097 265.753 955.249 266.916C959.539 269.483 963.924 271.907 968.405 274.155C964.02 276.849 959.491 279.273 954.93 281.601C959.906 282.781 964.913 283.833 969.968 284.79C966.507 288.568 962.856 292.172 959.14 295.695C964.243 295.36 969.346 295.01 974.464 294.675C972.072 299.171 969.649 303.667 967.225 308.147C972.04 306.394 976.84 304.56 981.656 302.726C980.556 307.749 979.503 312.787 978.371 317.809C982.501 314.716 986.647 311.639 990.841 308.61C991.208 313.696 991.463 318.782 991.734 323.868C994.955 319.962 997.969 315.896 1000.93 311.814C1003.12 316.374 1004.83 321.142 1006.47 325.925C1008.45 321.173 1010.25 316.374 1012.06 311.575C1015.09 315.721 1018.17 319.834 1021.28 323.932C1021.62 318.814 1021.97 313.712 1022.56 308.626C1026.59 311.703 1030.64 314.764 1034.76 317.73C1033.7 312.771 1032.59 307.828 1031.66 302.87C1036.46 304.608 1041.25 306.393 1046.06 308.163C1043.59 303.651 1041.09 299.171 1038.54 294.739C1043.67 294.994 1048.82 295.36 1053.97 295.647C1050.4 292.092 1046.81 288.568 1043.18 285.092C1048.13 283.785 1053.16 282.701 1058.2 281.649C1053.73 279.161 1049.2 276.754 1044.67 274.41C1049.16 271.827 1053.7 269.388 1058.26 266.948C1053.38 265.896 1048.52 264.86 1043.69 263.744C1046.78 259.821 1050.35 256.346 1053.97 252.918C1048.84 253.205 1043.7 253.524 1038.57 253.795C1041.12 249.378 1043.61 244.93 1045.98 240.434C1041.21 242.172 1036.46 243.989 1031.71 245.759C1032.57 240.768 1033.7 235.842 1034.74 230.899C1030.63 233.976 1026.54 237.101 1022.11 239.732C1021.9 234.694 1021.71 229.656 1021.28 224.649C1018.27 228.795 1015.17 232.892 1011.84 236.798C1010.15 232.031 1008.41 227.264 1006.47 222.608C1004.84 227.423 1003.14 232.223 1000.89 236.783ZM314.714 281.76C308.16 287.516 308.271 296.891 306.645 304.799C305.178 311.161 307.41 318.894 313.805 321.668C321.81 325.064 331.84 323.964 338.872 318.814C345.633 313.728 345.442 304.496 346.685 296.939C340.068 296.859 333.418 296.413 326.817 297.034C323.851 299.059 324.823 303.699 324.52 306.888C327.343 306.888 330.181 306.888 333.004 306.92C331.728 312.835 324.01 313.967 319.577 311.001C317.584 305.182 320.39 298.868 321.283 293.001C322.862 285.459 335.3 285.953 336.336 293.75C340.195 292.746 343.975 291.486 347.61 289.828C346.382 285.22 344.501 280.102 339.653 278.237C331.569 275.175 321.523 276.228 314.714 281.76ZM365.964 277.424C360.208 278.683 354.961 282.51 352.617 288.01C350.449 293.447 349.922 299.378 348.886 305.118C347.531 311.129 349.492 318.415 355.296 321.365C362.552 324.825 371.577 324.155 378.562 320.36C384.573 317.108 387.172 310.284 388.033 303.874C389.006 297.019 391.733 289.318 387.603 282.972C382.899 276.164 373.331 275.686 365.964 277.424ZM594.168 277.567C586.147 279.305 580.422 286.607 579.545 294.595C578.238 302.774 574.458 313.234 581.778 319.723C592.828 327.886 612.968 323.151 615.854 308.562C617.082 300.367 620.941 291.279 616.683 283.402C612.027 276.02 601.806 275.606 594.168 277.567ZM719.679 281.824C713.189 287.58 713.3 296.939 711.674 304.799C710.223 311.145 712.439 318.878 718.802 321.652C726.807 325.064 736.869 323.964 743.901 318.814C750.662 313.712 750.502 304.48 751.682 296.907C745.097 296.875 738.479 296.413 731.909 297.034C728.832 298.948 729.868 303.699 729.549 306.888C732.356 306.888 735.178 306.888 738.017 306.904C737.108 313.409 725.069 315.115 723.745 308.418C724.335 302.519 725.021 296.46 727.11 290.88C730.745 285.475 740.297 286.926 741.365 293.75C745.224 292.746 749.004 291.47 752.639 289.828C751.411 285.204 749.498 280.038 744.602 278.205C736.502 275.191 726.456 276.244 719.679 281.824ZM790.352 277.567C784.26 279.018 778.918 283.514 776.973 289.541C775.267 295.281 774.406 301.244 773.592 307.159C772.62 313.377 776.032 320.265 782.235 322.242C790.702 324.968 801.243 323.709 807.637 317.076C812.772 311.368 812.883 303.237 814.318 296.094C815.403 290.832 814.892 284.662 810.746 280.804C805.245 275.957 797.113 275.877 790.352 277.567ZM398.813 278.013C395.225 292.522 393.567 307.51 390.633 322.178C396.995 323.246 403.453 322.72 409.864 322.816C415.11 322.816 420.866 322.385 425.092 318.894C431.008 314.222 432.22 304.034 425.937 299.123C433.161 294.675 434.787 281.186 425.411 278.316C416.72 276.786 407.504 276.881 398.813 278.013ZM440.145 277.918C436.812 292.666 434.468 307.685 432.188 322.64C436.175 322.592 440.384 323.485 444.211 322.098C447.464 307.414 449.585 292.459 452.232 277.631C448.214 277.471 444.084 276.802 440.145 277.918ZM456.793 289.573C455.071 300.622 452.583 311.543 451.355 322.656C461.816 322.704 472.324 323.23 482.769 322.465C484.858 319.356 484.443 315.354 485.017 311.814C478.495 311.559 471.973 311.623 465.467 311.639C465.738 309.55 466.025 307.478 466.312 305.389C471.638 304.959 477.188 305.995 482.37 304.56C483.741 301.244 483.885 297.608 483.949 294.085C478.766 294.085 473.584 294.133 468.417 294.085C468.8 292.203 469.183 290.322 469.565 288.441C475.832 288.377 482.147 288.983 488.382 288.138C490.232 284.885 490.2 281.043 490.423 277.424C480.106 277.567 469.725 276.818 459.44 277.758C457.734 281.457 457.59 285.619 456.793 289.573ZM489.067 322.672C492.974 322.337 497.806 324.012 501.139 321.604C502.574 316.996 502.972 312.149 503.833 307.43C512.237 307.175 509.207 318.288 514.007 322.21C517.914 322.656 523.718 324.251 526.557 321.253C525.488 316.008 523.176 311.129 521.629 306.011C528.933 302.2 532.249 293.096 530.128 285.316C528.885 280.899 524.5 277.886 520.019 277.615C512.381 276.993 504.711 277.503 497.072 277.392C493.676 292.315 491.236 307.51 489.067 322.672ZM539.122 278.061C535.821 292.73 533.477 307.685 531.261 322.577C534.992 322.385 539.489 323.916 542.758 321.732C545.373 312.181 546.441 302.248 546.202 292.363C547.494 303.077 552.596 312.723 557.476 322.162C560.968 323.406 565.05 323.071 568.622 322.146C571.843 307.398 574.251 292.443 576.531 277.519C572.736 277.742 568.383 276.355 564.955 278.332C562.483 287.739 561.287 297.513 562.228 307.223C560.235 296.604 554.94 287.101 550.476 277.392C546.696 277.519 542.726 276.738 539.122 278.061ZM631.019 322.704C634.926 322.369 639.614 323.916 643.026 321.684C644.477 317.044 644.908 312.181 645.753 307.43C653.471 307.302 651.781 316.885 654.986 321.652C658.861 323.581 663.565 322.895 667.759 322.449C669.098 317.188 664.745 311.543 663.469 306.266C670.613 302.2 674.217 293.351 672.08 285.443C670.868 280.931 666.435 277.886 661.89 277.615C654.268 276.993 646.582 277.487 638.944 277.408C635.659 292.379 633.076 307.526 631.019 322.704ZM679.048 285.906C677.151 298.166 674.52 310.3 672.941 322.608C683.418 322.768 693.958 323.214 704.418 322.449C706.539 319.34 706.061 315.338 706.603 311.799C700.097 311.559 693.607 311.623 687.101 311.639C687.388 309.55 687.691 307.462 687.994 305.373C693.304 304.943 698.885 306.059 704.02 304.528C705.407 301.228 705.503 297.608 705.63 294.101C700.432 294.085 695.234 294.133 690.035 294.085C690.45 292.187 690.864 290.306 691.263 288.425C697.466 288.377 703.733 289.015 709.888 288.138C712.041 285.029 711.77 281.027 712.089 277.424C701.787 277.551 691.454 276.865 681.201 277.726C679.702 280.166 679.638 283.163 679.048 285.906ZM760.612 277.997C757.327 292.714 754.999 307.701 752.687 322.608C756.658 322.608 760.867 323.469 764.726 322.114C767.995 307.43 770.068 292.475 772.763 277.663C768.745 277.551 764.519 276.658 760.612 277.997ZM822.929 278.157C819.644 292.793 817.364 307.701 815.068 322.529C818.815 322.385 823.296 323.916 826.597 321.732C829.116 312.133 830.583 302.121 829.738 292.187C831.524 302.838 836.26 312.628 841.267 322.082C844.712 323.469 848.905 323.055 852.477 322.114C855.73 307.43 857.963 292.475 860.466 277.631C856.48 278.077 848.491 274.872 848.076 281.059C846.195 289.668 845.014 298.485 846.258 307.286C843.946 296.731 838.859 287.181 834.394 277.439C830.599 277.615 826.469 276.563 822.929 278.157ZM855.906 322.306C860.036 322.768 864.293 323.358 868.391 322.242C870.289 320.44 871.182 317.873 872.489 315.657C877.098 315.593 881.722 315.609 886.347 315.721C886.65 317.905 886.969 320.105 887.319 322.306C891.513 322.784 895.771 322.879 900.012 322.736C898.131 307.51 894.942 292.427 891.816 277.408C887.925 277.376 884.019 277.089 880.192 277.742C871.405 292.172 864.038 307.478 855.906 322.306ZM911.222 278.747C908.288 293.304 905.577 307.972 903.664 322.72C913.263 322.656 922.911 323.214 932.494 322.513C935.476 320.105 934.408 315.179 935.125 311.703C929.305 311.607 923.501 311.639 917.68 311.623C919.61 300.335 921.651 289.078 923.517 277.774C919.626 277.934 914.109 275.749 911.222 278.747ZM938.793 281.266C938.123 286.256 937.246 291.231 936.401 296.205C938.937 297.066 941.504 297.927 944.071 298.756C943.401 292.602 939.861 287.325 938.793 281.266ZM950.928 308.211C951.295 315.067 950.178 321.971 947.914 328.444C945.793 333.434 940.93 336.496 935.939 338.074C940.738 340.705 945.379 344.133 947.723 349.235C950.848 356.473 951.502 364.477 951.247 372.274C951.199 420.743 951.199 469.212 951.247 517.698C954.675 515.003 959.029 512.962 961.389 509.216C961.691 471.827 961.612 434.407 961.42 397.003C959.443 394.866 957.083 392.793 956.445 389.828C953.591 379.448 953.575 368.256 956.429 357.876C957.29 352.886 963.127 351.084 964.291 346.285C965.885 340.083 970.892 335.172 977.111 333.626C970.876 333.402 965.933 329.401 963.238 323.996C955.839 322.178 951.773 315.37 950.928 308.211ZM576.85 335.81C575.463 336.4 574.124 337.022 572.752 337.612C579.003 339.19 584.552 343.559 587.407 349.362C590.197 356.043 591.122 363.377 590.867 370.584C590.835 415.274 590.771 459.965 590.899 504.656C590.085 511.511 596.049 517.028 602.619 517.188C609.906 517.554 618.581 518.606 624.481 513.361C628.691 508.849 627.192 502.168 627.527 496.588C627.479 452.997 627.527 409.423 627.511 365.832C627.479 355.309 631.274 343.989 641.113 338.807C633.108 339.158 624.369 338.297 618.469 332.239C606.303 340.45 590.293 341.358 576.85 335.81ZM846.785 338.728C842.288 339.047 837.95 337.644 833.661 336.559C828.096 338.058 822.307 339.493 816.519 338.552C812.166 337.946 807.765 335.443 803.443 337.516C808.817 340.306 813.904 343.894 817.077 349.171C830.743 370.265 844.106 391.534 857.739 412.643C857.707 397.577 857.755 382.51 857.707 367.443C857.692 361.368 858.712 355.246 860.976 349.601C864.5 342.108 872.202 337.404 880.287 336.416C879.857 335.985 878.98 335.108 878.549 334.662C868.981 340.88 857.389 337.691 846.785 338.728ZM483.327 337.516C488.302 341.04 493.102 345.026 495.813 350.654C498.922 344.531 504.184 340.003 510.403 337.229C507.15 336.926 503.961 337.548 500.82 338.233C495.015 339.525 489.099 338.329 483.327 337.516ZM708.022 337.5C714.895 340.242 720.428 345.647 723.027 352.615C724.67 347.864 727.62 343.304 732.244 340.992L733.169 340.099L732.643 338.871C732.021 339.126 730.793 339.621 730.171 339.86C722.645 340.003 715.421 335.475 708.022 337.5ZM978.754 359.375C976.442 360.73 974.098 362.07 971.769 363.393C970.446 370.344 970.526 377.535 971.674 384.519C973.811 384.806 975.963 385.092 978.132 385.379C978.244 429.385 978.18 473.374 978.164 517.379C970.605 523.406 963.015 529.432 955.393 535.38C955.249 547.417 955.457 559.455 955.425 571.492C955.536 574.681 955.329 578.077 956.796 581.027C958.55 583.61 961.963 583.115 964.673 583.243C993.424 583.084 1022.17 583.371 1050.93 583.1C1054.45 583.307 1056.33 579.496 1056.25 576.451C1056.68 562.915 1056.22 549.378 1056.46 535.858C1048.95 529.831 1041.6 523.597 1033.91 517.793C1033.51 473.725 1033.91 429.656 1033.72 385.587C1035.97 385.029 1038.26 384.566 1040.56 384.152C1040.86 377.376 1040.98 370.584 1040.42 363.823C1037.96 362.341 1035.52 360.874 1033.08 359.391C1032.94 356.585 1033.18 353.731 1032.48 350.989C1031.04 348.374 1027.82 349.027 1025.36 348.82C1011.17 348.996 996.964 348.613 982.788 348.996C977.574 349.474 978.818 355.724 978.754 359.375ZM423.481 352.455C418.395 353.763 416.816 359.503 416.896 364.142C416.816 411.464 416.928 458.801 416.848 506.138C416.752 514.908 414.679 525.159 406.627 530.118C395.209 536.559 378.386 534.152 371.466 522.258C366.937 516.454 366.443 506.968 358.884 504.002C351.9 502.79 345.426 506.84 338.92 508.753C329.288 512.42 319.306 515.211 309.898 519.436C305.226 521.413 302.308 526.754 304.094 531.712C307.666 543.91 313.948 555.373 322.384 564.892C337.421 582.031 360.367 590.083 382.692 591.151C407.472 592.506 434.197 588.728 454.194 572.943C466.95 562.915 475.402 548.151 479.181 532.494C482.163 520.775 482.546 508.626 482.418 496.588C482.386 453.029 482.418 409.487 482.402 365.928C482.466 360.906 481.684 354.177 475.992 352.503C467.413 350.526 458.483 351.881 449.761 351.499C441.022 351.865 432.092 350.558 423.481 352.455ZM515.952 352.471C510.85 353.795 509.303 359.519 509.383 364.158C509.319 404.082 509.383 444.005 509.367 483.929C509.446 495.536 508.84 507.239 510.786 518.75C513.513 536.958 521.661 554.703 535.391 567.235C553.888 584.375 579.768 590.753 604.421 591.374C631.418 592.076 660.376 586.846 681.329 568.654C700.209 552.535 708.692 527.216 708.963 502.934C709.011 456.76 708.995 410.571 708.963 364.397C709.059 359.662 707.416 353.89 702.266 352.519C694.771 350.654 686.958 351.786 679.319 351.499C669.911 351.818 660.392 350.733 651.063 352.2C645.195 353.109 643.297 359.55 643.489 364.7C643.409 407.605 643.473 450.526 643.457 493.431C643.409 502.471 644.302 512.293 639.231 520.297C634.081 528.986 623.668 532.701 614.036 533.307C603.831 533.976 592.557 533.052 584.281 526.403C577.297 520.823 574.698 511.496 574.889 502.87C574.889 457.207 574.889 411.543 574.889 365.88C574.761 361.527 574.49 356.186 570.408 353.587C566.246 351.132 561.191 351.594 556.567 351.467C543.045 352.073 529.315 350.335 515.952 352.471ZM739.133 355.533C736.39 359.439 736.869 364.493 736.709 369.021C736.773 436.512 736.725 504.018 736.725 571.508C736.885 575.478 736.805 579.975 739.579 583.163C742.434 586.32 747.042 586.464 751.013 586.655C761.681 586.719 772.349 586.639 783.032 586.687C787.194 586.527 791.946 586.639 795.311 583.769C799.058 580.23 798.532 574.601 798.675 569.914C798.5 547.975 798.899 526.036 798.42 504.114C797.942 482.749 794.147 461.623 789.347 440.864C788.741 437.867 787.593 434.678 789.172 431.792C792.68 438.377 794.003 445.807 796.555 452.79C801.944 469.579 809.375 485.746 818.943 500.574C836.037 527.041 853.195 553.476 870.337 579.911C872.681 583.961 877.05 586.496 881.738 586.512C894.017 586.926 906.311 586.527 918.589 586.703C923.15 586.527 928.508 586.942 932.112 583.562C935.189 580.421 935.11 575.67 935.285 571.572C935.253 502.998 935.285 434.423 935.269 365.832C935.524 360.379 933.866 353.269 927.535 352.2C917.697 350.702 907.666 351.85 897.748 351.499C891.449 351.754 884.736 350.574 878.772 353.125C874.1 355.421 873.733 361.256 873.717 365.8C873.765 386.033 873.669 406.266 873.765 426.499C873.957 444.818 876.667 463.09 881.802 480.676C883.811 488.6 886.873 496.237 888.34 504.289C885.342 503.556 884.672 500.367 883.572 497.959C876.524 480.07 870.209 461.703 859.717 445.456C841.124 416.231 822.467 387.038 803.762 357.876C801.466 353.858 797.017 351.642 792.456 351.642C779.205 351.26 765.922 351.626 752.671 351.483C747.999 351.626 742.306 351.451 739.133 355.533ZM1081.19 354.624C1077.54 358.402 1078.15 364.142 1077.95 368.989C1078.02 436.464 1077.97 503.938 1077.97 571.429C1078.13 575.717 1078.03 580.836 1081.59 583.929C1085.5 587.006 1090.84 586.527 1095.53 586.703C1106.18 586.559 1116.83 586.846 1127.5 586.575C1131.69 586.448 1136.78 585.316 1138.56 580.979C1140.56 575.973 1139.71 570.424 1139.9 565.179C1139.76 544.372 1140.18 523.581 1139.62 502.774C1139.04 481.808 1135.26 461.081 1130.54 440.689C1129.92 437.755 1128.9 434.662 1130.37 431.808C1131.92 434.614 1133.11 437.596 1134 440.689C1138.47 455.644 1143.57 470.504 1150.83 484.375C1156.65 495.743 1163.92 506.266 1170.81 516.996C1184.39 537.946 1197.96 558.929 1211.57 579.879C1213.93 584.008 1218.37 586.527 1223.14 586.527C1234.82 586.926 1246.5 586.512 1258.19 586.703C1262.94 586.527 1268.25 587.133 1272.43 584.343C1276.4 581.409 1276.37 575.941 1276.53 571.492C1276.5 502.95 1276.53 434.407 1276.51 365.88C1276.59 360.826 1275.59 354.209 1269.94 352.535C1262.48 350.606 1254.68 351.802 1247.08 351.499C1238.82 351.786 1230.45 350.749 1222.28 352.248C1216.76 353.269 1214.8 359.311 1214.99 364.254C1214.93 384.471 1214.98 404.687 1214.99 424.92C1214.85 448.533 1219.78 471.827 1227.03 494.212C1227.78 497.656 1230.37 501.403 1228.15 504.815C1219.28 486.591 1214.12 466.645 1203.31 449.346C1184.98 419.962 1166.02 390.976 1147.54 361.703C1144.83 357.031 1141.16 351.865 1135.17 351.786C1121.96 351.084 1108.71 351.722 1095.49 351.467C1090.66 351.642 1085.03 351.116 1081.19 354.624Z" fill="white"/>
<path d="M367.591 288.265C370.844 287.261 375.675 287.054 377.334 290.753C377.174 296.652 376.01 302.535 374.463 308.211C372.646 314.206 359.857 314.365 361.085 306.856C362.743 300.717 361.196 291.789 367.591 288.265Z" fill="white"/>
<path d="M407.886 294.962C408.939 292.554 407.472 287.006 411.602 287.372C414.073 287.325 419.83 286.894 418.634 290.992C418.411 296.54 411.506 294.499 407.886 294.962Z" fill="white"/>
<path d="M596.847 288.09C599.988 287.325 605.075 287.149 606.143 291.055C606.016 296.652 604.772 302.216 603.48 307.653C601.901 314.892 587.072 314.11 590.069 305.469C591.744 299.697 590.213 290.896 596.847 288.09Z" fill="white"/>
<path d="M793.046 288.074C796.172 287.325 801.195 287.165 802.279 291.039C802.168 296.636 800.908 302.2 799.616 307.653C798.006 314.939 783.096 314.062 786.222 305.357C787.88 299.601 786.365 290.8 793.046 288.074Z" fill="white"/>
<path d="M507.15 288.536C510.371 288.584 513.688 288.186 516.861 289.078C518.599 291.645 517.404 295.552 514.741 296.987C511.727 297.433 508.681 297.29 505.667 297.353C506.162 294.404 506.656 291.47 507.15 288.536Z" fill="white"/>
<path d="M649.054 288.536C652.291 288.568 655.576 288.249 658.765 289.031C660.487 291.645 659.371 295.615 656.596 297.003C653.598 297.433 650.585 297.29 647.587 297.353C648.065 294.404 648.576 291.47 649.054 288.536Z" fill="white"/>
<path d="M877.194 305.788C879.761 300.303 882.073 294.707 884.162 289.031C883.795 294.627 884.226 300.223 885.103 305.756C882.456 305.756 879.825 305.756 877.194 305.788Z" fill="white"/>
<path d="M404.857 312.436C405.399 309.901 405.909 307.35 406.435 304.815C410.278 304.863 414.233 304.799 417.853 306.346C417.358 307.621 416.354 310.188 415.859 311.464C412.574 313.297 408.476 312.117 404.857 312.436Z" fill="white"/>
<path d="M314.714 281.76C321.523 276.228 331.569 275.175 339.653 278.237C344.501 280.102 346.382 285.22 347.61 289.828C343.975 291.486 340.195 292.746 336.336 293.75C335.3 285.953 322.862 285.459 321.283 293.001C320.39 298.868 317.584 305.182 319.577 311.001C324.01 313.967 331.728 312.835 333.004 306.92C330.181 306.888 327.343 306.888 324.52 306.888C324.823 303.699 323.851 299.059 326.817 297.034C333.418 296.413 340.068 296.859 346.685 296.939C345.442 304.496 345.633 313.728 338.872 318.814C331.84 323.964 321.81 325.064 313.805 321.668C307.41 318.894 305.178 311.161 306.645 304.799C308.271 296.891 308.16 287.516 314.714 281.76Z" fill="#1255B3"/>
<path d="M365.964 277.424C373.331 275.686 382.899 276.164 387.603 282.972C391.733 289.318 389.006 297.019 388.033 303.874C387.172 310.284 384.573 317.108 378.562 320.36C371.577 324.155 362.552 324.825 355.296 321.365C349.492 318.415 347.531 311.129 348.886 305.118C349.922 299.378 350.449 293.447 352.617 288.01C354.961 282.51 360.208 278.683 365.964 277.424ZM367.591 288.265C361.196 291.789 362.743 300.717 361.085 306.856C359.857 314.365 372.646 314.206 374.463 308.211C376.01 302.535 377.174 296.652 377.334 290.753C375.675 287.054 370.844 287.261 367.591 288.265Z" fill="#1255B3"/>
<path d="M594.168 277.567C601.806 275.606 612.027 276.02 616.683 283.402C620.941 291.279 617.082 300.367 615.854 308.562C612.968 323.151 592.828 327.886 581.778 319.723C574.458 313.234 578.238 302.774 579.545 294.595C580.422 286.607 586.147 279.305 594.168 277.567ZM596.847 288.09C590.213 290.896 591.744 299.697 590.069 305.469C587.072 314.11 601.901 314.892 603.48 307.653C604.772 302.216 606.016 296.652 606.143 291.055C605.075 287.149 599.988 287.325 596.847 288.09Z" fill="#1255B3"/>
<path d="M719.679 281.824C726.456 276.244 736.502 275.191 744.602 278.205C749.498 280.038 751.411 285.204 752.639 289.828C749.004 291.47 745.224 292.746 741.365 293.75C740.297 286.926 730.745 285.475 727.11 290.88C725.021 296.46 724.335 302.519 723.745 308.418C725.069 315.115 737.108 313.409 738.017 306.904C735.178 306.888 732.356 306.888 729.549 306.888C729.868 303.699 728.832 298.948 731.909 297.034C738.479 296.413 745.097 296.875 751.682 296.907C750.502 304.48 750.662 313.712 743.901 318.814C736.869 323.964 726.807 325.064 718.802 321.652C712.439 318.878 710.223 311.145 711.674 304.799C713.3 296.939 713.189 287.58 719.679 281.824Z" fill="#1255B3"/>
<path d="M790.352 277.567C797.113 275.877 805.245 275.957 810.746 280.804C814.892 284.662 815.403 290.832 814.318 296.094C812.883 303.237 812.772 311.368 807.637 317.076C801.243 323.709 790.702 324.968 782.235 322.242C776.032 320.265 772.62 313.377 773.592 307.159C774.406 301.244 775.267 295.281 776.973 289.541C778.918 283.514 784.26 279.018 790.352 277.567ZM793.046 288.074C786.365 290.8 787.88 299.601 786.222 305.357C783.096 314.062 798.006 314.939 799.616 307.653C800.908 302.2 802.168 296.636 802.279 291.039C801.195 287.165 796.172 287.325 793.046 288.074Z" fill="#1255B3"/>
<path d="M398.813 278.013C407.504 276.881 416.72 276.786 425.411 278.316C434.787 281.186 433.161 294.675 425.937 299.123C432.22 304.034 431.008 314.222 425.092 318.894C420.866 322.385 415.11 322.816 409.864 322.816C403.453 322.72 396.995 323.246 390.633 322.178C393.567 307.51 395.225 292.522 398.813 278.013ZM407.886 294.962C411.506 294.499 418.411 296.54 418.634 290.992C419.83 286.894 414.073 287.325 411.602 287.372C407.472 287.006 408.939 292.554 407.886 294.962ZM404.857 312.436C408.476 312.117 412.574 313.297 415.859 311.464C416.354 310.188 417.358 307.621 417.853 306.346C414.233 304.799 410.278 304.863 406.435 304.815C405.909 307.35 405.399 309.901 404.857 312.436Z" fill="#1255B3"/>
<path d="M440.145 277.918C444.084 276.802 448.214 277.471 452.232 277.631C449.585 292.459 447.464 307.414 444.211 322.098C440.384 323.485 436.175 322.592 432.188 322.64C434.468 307.685 436.812 292.666 440.145 277.918Z" fill="#1255B3"/>
<path d="M456.793 289.573C457.59 285.619 457.734 281.457 459.44 277.758C469.725 276.818 480.106 277.567 490.423 277.424C490.2 281.043 490.232 284.885 488.382 288.138C482.147 288.983 475.832 288.377 469.565 288.441C469.183 290.322 468.8 292.203 468.417 294.085C473.584 294.133 478.766 294.085 483.949 294.085C483.885 297.608 483.741 301.244 482.37 304.56C477.188 305.995 471.638 304.959 466.312 305.389C466.025 307.478 465.738 309.55 465.467 311.639C471.973 311.623 478.495 311.559 485.017 311.814C484.443 315.354 484.858 319.356 482.769 322.465C472.324 323.23 461.816 322.704 451.355 322.656C452.583 311.543 455.071 300.622 456.793 289.573Z" fill="#1255B3"/>
<path d="M489.067 322.672C491.236 307.51 493.676 292.315 497.072 277.392C504.711 277.503 512.381 276.993 520.019 277.615C524.5 277.886 528.885 280.899 530.128 285.316C532.249 293.096 528.933 302.2 521.629 306.011C523.176 311.129 525.488 316.008 526.557 321.253C523.718 324.251 517.914 322.656 514.007 322.21C509.207 318.288 512.237 307.175 503.833 307.43C502.972 312.149 502.574 316.996 501.139 321.604C497.806 324.012 492.974 322.337 489.067 322.672ZM507.15 288.536C506.656 291.47 506.162 294.404 505.667 297.353C508.681 297.29 511.727 297.433 514.741 296.987C517.404 295.552 518.599 291.645 516.861 289.078C513.688 288.186 510.371 288.584 507.15 288.536Z" fill="#1255B3"/>
<path d="M539.122 278.061C542.726 276.738 546.696 277.519 550.476 277.392C554.94 287.101 560.235 296.604 562.228 307.223C561.287 297.513 562.483 287.739 564.955 278.332C568.383 276.355 572.736 277.742 576.531 277.519C574.251 292.443 571.843 307.398 568.622 322.146C565.05 323.071 560.968 323.406 557.476 322.162C552.596 312.723 547.494 303.077 546.202 292.363C546.441 302.248 545.373 312.181 542.758 321.732C539.489 323.916 534.992 322.385 531.261 322.577C533.477 307.685 535.821 292.73 539.122 278.061Z" fill="#1255B3"/>
<path d="M631.019 322.704C633.076 307.526 635.659 292.379 638.944 277.408C646.582 277.487 654.268 276.993 661.89 277.615C666.435 277.886 670.868 280.931 672.08 285.443C674.217 293.351 670.613 302.2 663.469 306.266C664.745 311.543 669.098 317.188 667.759 322.449C663.565 322.895 658.861 323.581 654.986 321.652C651.781 316.885 653.471 307.302 645.753 307.43C644.908 312.181 644.477 317.044 643.026 321.684C639.614 323.916 634.926 322.369 631.019 322.704ZM649.054 288.536C648.576 291.47 648.065 294.404 647.587 297.353C650.585 297.29 653.598 297.433 656.596 297.003C659.371 295.615 660.487 291.645 658.765 289.031C655.576 288.249 652.291 288.568 649.054 288.536Z" fill="#1255B3"/>
<path d="M679.048 285.906C679.638 283.163 679.702 280.166 681.201 277.726C691.454 276.865 701.787 277.551 712.089 277.424C711.77 281.027 712.041 285.029 709.888 288.138C703.733 289.015 697.466 288.377 691.263 288.425C690.864 290.306 690.45 292.187 690.035 294.085C695.234 294.133 700.432 294.085 705.63 294.101C705.503 297.608 705.407 301.228 704.02 304.528C698.885 306.059 693.304 304.943 687.994 305.373C687.691 307.462 687.388 309.55 687.101 311.639C693.607 311.623 700.097 311.559 706.603 311.799C706.061 315.338 706.539 319.34 704.418 322.449C693.958 323.214 683.418 322.768 672.941 322.608C674.52 310.3 677.151 298.166 679.048 285.906Z" fill="#1255B3"/>
<path d="M760.612 277.997C764.519 276.658 768.745 277.551 772.763 277.663C770.068 292.475 767.995 307.43 764.726 322.114C760.867 323.469 756.658 322.608 752.687 322.608C754.999 307.701 757.327 292.714 760.612 277.997Z" fill="#1255B3"/>
<path d="M822.929 278.157C826.469 276.563 830.599 277.615 834.394 277.439C838.859 287.181 843.946 296.731 846.258 307.286C845.014 298.485 846.195 289.668 848.076 281.059C848.491 274.872 856.48 278.077 860.466 277.631C857.963 292.475 855.73 307.43 852.477 322.114C848.905 323.055 844.712 323.469 841.267 322.082C836.26 312.628 831.524 302.838 829.738 292.187C830.583 302.121 829.116 312.133 826.597 321.732C823.296 323.916 818.815 322.385 815.068 322.529C817.364 307.701 819.644 292.793 822.929 278.157Z" fill="#1255B3"/>
<path d="M855.906 322.306C864.038 307.478 871.405 292.172 880.192 277.742C884.019 277.089 887.925 277.376 891.816 277.408C894.942 292.427 898.131 307.51 900.012 322.736C895.771 322.879 891.513 322.784 887.319 322.306C886.969 320.105 886.65 317.905 886.347 315.721C881.722 315.609 877.098 315.593 872.489 315.657C871.182 317.873 870.289 320.44 868.391 322.242C864.293 323.358 860.036 322.768 855.906 322.306ZM877.194 305.788C879.825 305.756 882.456 305.756 885.103 305.756C884.226 300.223 883.795 294.627 884.162 289.031C882.073 294.707 879.761 300.303 877.194 305.788Z" fill="#1255B3"/>
<path d="M911.222 278.747C914.109 275.749 919.626 277.934 923.517 277.774C921.651 289.078 919.61 300.335 917.68 311.623C923.501 311.639 929.305 311.607 935.125 311.703C934.408 315.179 935.476 320.105 932.494 322.513C922.911 323.214 913.263 322.656 903.664 322.72C905.577 307.972 908.288 293.304 911.222 278.747Z" fill="#1255B3"/>
<path d="M978.754 359.375C978.818 355.724 977.574 349.474 982.788 348.996C996.964 348.613 1011.17 348.996 1025.36 348.82C1027.82 349.027 1031.04 348.374 1032.48 350.989C1033.18 353.731 1032.94 356.585 1033.08 359.391C1035.52 360.874 1037.96 362.341 1040.42 363.823C1040.98 370.584 1040.86 377.376 1040.56 384.152C1038.26 384.566 1035.97 385.029 1033.72 385.587C1033.91 429.656 1033.51 473.725 1033.91 517.793C1041.6 523.597 1048.95 529.831 1056.46 535.858C1056.22 549.378 1056.68 562.915 1056.25 576.451C1056.33 579.496 1054.45 583.307 1050.93 583.1C1022.17 583.371 993.424 583.084 964.673 583.243C961.963 583.115 958.55 583.61 956.796 581.027C955.329 578.077 955.536 574.681 955.425 571.492C955.457 559.455 955.249 547.417 955.393 535.38C963.015 529.432 970.605 523.406 978.164 517.379C978.18 473.374 978.244 429.385 978.132 385.379C975.963 385.092 973.811 384.806 971.674 384.519C970.526 377.535 970.446 370.344 971.769 363.393C974.098 362.07 976.442 360.73 978.754 359.375Z" fill="#1255B3"/>
<path d="M423.481 352.455C432.092 350.558 441.022 351.865 449.761 351.499C458.483 351.881 467.413 350.526 475.992 352.503C481.684 354.177 482.466 360.906 482.402 365.928C482.418 409.487 482.386 453.029 482.418 496.588C482.546 508.626 482.163 520.775 479.181 532.494C475.402 548.151 466.95 562.915 454.194 572.943C434.197 588.728 407.472 592.506 382.692 591.151C360.367 590.083 337.421 582.031 322.384 564.892C313.948 555.373 307.666 543.91 304.094 531.712C302.308 526.754 305.226 521.413 309.898 519.436C319.306 515.211 329.288 512.42 338.92 508.753C345.426 506.84 351.9 502.79 358.884 504.002C366.443 506.968 366.937 516.454 371.466 522.258C378.386 534.152 395.209 536.559 406.627 530.118C414.679 525.159 416.752 514.908 416.848 506.138C416.928 458.801 416.816 411.464 416.896 364.142C416.816 359.503 418.395 353.763 423.481 352.455Z" fill="#1255B3"/>
<path d="M515.952 352.471C529.315 350.335 543.045 352.073 556.567 351.467C561.191 351.594 566.246 351.132 570.408 353.587C574.49 356.186 574.761 361.527 574.889 365.88C574.889 411.543 574.889 457.207 574.889 502.87C574.698 511.496 577.297 520.823 584.281 526.403C592.557 533.052 603.831 533.976 614.036 533.307C623.668 532.701 634.081 528.986 639.231 520.297C644.302 512.293 643.409 502.471 643.457 493.431C643.473 450.526 643.409 407.605 643.489 364.7C643.297 359.55 645.195 353.109 651.063 352.2C660.392 350.733 669.911 351.818 679.319 351.499C686.958 351.786 694.771 350.654 702.266 352.519C707.416 353.89 709.059 359.662 708.963 364.397C708.995 410.571 709.011 456.76 708.963 502.934C708.692 527.216 700.209 552.535 681.329 568.654C660.376 586.846 631.418 592.076 604.421 591.374C579.768 590.753 553.888 584.375 535.391 567.235C521.661 554.703 513.513 536.958 510.786 518.75C508.84 507.239 509.446 495.536 509.367 483.929C509.383 444.005 509.319 404.082 509.383 364.158C509.303 359.519 510.85 353.795 515.952 352.471Z" fill="#1255B3"/>
<path d="M739.133 355.533C742.306 351.451 747.999 351.626 752.671 351.483C765.922 351.626 779.205 351.26 792.456 351.642C797.017 351.642 801.466 353.858 803.762 357.876C822.467 387.038 841.124 416.231 859.717 445.456C870.209 461.703 876.524 480.07 883.572 497.959C884.672 500.367 885.342 503.556 888.34 504.289C886.873 496.237 883.811 488.6 881.802 480.676C876.667 463.09 873.957 444.818 873.765 426.499C873.669 406.266 873.765 386.033 873.717 365.8C873.733 361.256 874.1 355.421 878.772 353.125C884.736 350.574 891.449 351.754 897.748 351.499C907.666 351.85 917.697 350.702 927.535 352.2C933.866 353.269 935.524 360.379 935.269 365.832C935.285 434.423 935.253 502.998 935.285 571.572C935.11 575.67 935.189 580.421 932.112 583.562C928.508 586.942 923.15 586.527 918.589 586.703C906.311 586.527 894.017 586.926 881.738 586.512C877.05 586.496 872.681 583.961 870.337 579.911C853.195 553.476 836.037 527.041 818.943 500.574C809.375 485.746 801.944 469.579 796.555 452.79C794.003 445.807 792.68 438.377 789.172 431.792C787.593 434.678 788.741 437.867 789.347 440.864C794.147 461.623 797.942 482.749 798.42 504.114C798.899 526.036 798.5 547.975 798.675 569.914C798.532 574.601 799.058 580.23 795.311 583.769C791.946 586.639 787.194 586.527 783.032 586.687C772.349 586.639 761.681 586.719 751.013 586.655C747.042 586.464 742.434 586.32 739.579 583.163C736.805 579.975 736.885 575.478 736.725 571.508C736.725 504.018 736.773 436.512 736.709 369.021C736.869 364.493 736.39 359.439 739.133 355.533Z" fill="#1255B3"/>
<path d="M1081.19 354.624C1085.03 351.116 1090.66 351.642 1095.49 351.467C1108.71 351.722 1121.96 351.084 1135.17 351.786C1141.16 351.865 1144.83 357.031 1147.54 361.703C1166.02 390.976 1184.98 419.962 1203.31 449.346C1214.12 466.645 1219.28 486.591 1228.15 504.815C1230.37 501.403 1227.78 497.656 1227.03 494.212C1219.78 471.827 1214.85 448.533 1214.99 424.92C1214.98 404.687 1214.93 384.471 1214.99 364.254C1214.8 359.311 1216.76 353.269 1222.28 352.248C1230.45 350.749 1238.82 351.786 1247.08 351.499C1254.68 351.802 1262.48 350.606 1269.94 352.535C1275.59 354.209 1276.59 360.826 1276.51 365.88C1276.53 434.407 1276.5 502.95 1276.53 571.492C1276.37 575.941 1276.4 581.409 1272.43 584.343C1268.25 587.133 1262.94 586.527 1258.19 586.703C1246.5 586.512 1234.82 586.926 1223.14 586.527C1218.37 586.527 1213.93 584.008 1211.57 579.879C1197.96 558.929 1184.39 537.946 1170.81 516.996C1163.92 506.266 1156.65 495.743 1150.83 484.375C1143.57 470.504 1138.47 455.644 1134 440.689C1133.11 437.596 1131.92 434.614 1130.37 431.808C1128.9 434.662 1129.92 437.755 1130.54 440.689C1135.26 461.081 1139.04 481.808 1139.62 502.774C1140.18 523.581 1139.76 544.372 1139.9 565.179C1139.71 570.424 1140.56 575.973 1138.56 580.979C1136.78 585.316 1131.69 586.448 1127.5 586.575C1116.83 586.846 1106.18 586.559 1095.53 586.703C1090.84 586.527 1085.5 587.006 1081.59 583.929C1078.03 580.836 1078.13 575.717 1077.97 571.429C1077.97 503.938 1078.02 436.464 1077.95 368.989C1078.15 364.142 1077.54 358.402 1081.19 354.624Z" fill="#1255B3"/>
</g>
<defs>
<clipPath id="clip0_282_33">
<rect width="1540" height="1000" fill="white"/>
</clipPath>
</defs>
</svg>
