<svg width="1000" height="1000" viewBox="0 0 1000 1000" fill="none" xmlns="http://www.w3.org/2000/svg">
<g clip-path="url(#clip0_283_83)">
<path d="M484.869 0H515.964C567.401 2.85151 618.703 11.7204 667.199 29.4806C741.199 56.0199 808.734 100.319 862.641 157.552C918.276 216.221 959.475 288.586 981.23 366.475C992.883 406.868 998.384 448.787 1000 490.729V521.849C998.384 540.036 997.643 558.357 994.701 576.409C982.6 659.328 949.259 738.991 898.653 805.743C851.347 869.195 787.225 919.399 715.694 952.876C615.582 999.87 499.709 1012.22 391.896 987.656C383.858 985.747 376.135 981.212 372.026 973.847C364.078 961.072 367.873 942.593 380.423 934.196C387.99 928.627 397.913 928.156 406.804 930.289C439.337 937.563 472.722 941.134 506.063 940.752C609.543 940.64 712.327 902.2 790.795 834.819C870.05 767.798 924.136 672.081 940.862 569.674C953.503 492.952 945.936 412.841 918.209 340.138C891.109 267.952 844.455 203.378 785.003 154.318C727.437 106.943 657.791 74.0495 584.352 60.7125C509.431 46.7693 430.85 52.2029 358.825 77.2602C280.446 103.934 210.105 153.443 158.084 217.793C104.2 284.073 70.0961 366.251 61.5196 451.257C58.1069 483.342 59.5887 515.652 59.2744 547.849C59.0274 614.759 59.7459 681.668 58.9152 748.578C53.8186 741.213 49.5079 733.355 45.7809 725.227C25.1254 683.218 10.4869 638.312 2.00013 592.284C0.697932 585.009 -0.0429737 577.667 0.0019297 570.28C0.13664 544.841 0.0692847 519.402 0.046833 493.963C0.450963 445.487 7.65796 397.034 21.6678 350.624C46.5218 269.142 92.2559 193.903 154.043 135.189C198.542 93.4937 250.765 60.0389 307.231 37.0472C363.495 13.786 424.114 1.97585 484.869 0Z" fill="white"/>
<path d="M413.135 122.907C485.183 105.933 562.282 109.48 632.017 134.627C711.316 162.604 780.625 217.658 826.112 288.362C868.209 352.936 889.695 430.533 887.337 507.547C885.878 574.411 866.165 640.737 831.096 697.677C797.037 753.36 748.586 800.197 691.693 832.192C600.45 884.26 487.54 895.824 387.496 863.963C373.755 859.899 364.752 844.811 367.334 830.778C369.422 816.408 383.769 804.822 398.317 806.372C407.522 807.494 416.189 810.997 425.192 813.13C488.124 828.667 555.749 824.85 616.458 802.061C676.494 779.9 729.569 739.372 766.907 687.416C805.119 634.72 827.122 570.302 828.245 505.144C830.018 442.321 812.977 379.071 779.749 325.701C743.939 267.885 689.65 221.655 626.673 195.924C560.935 168.688 486.171 164.31 417.558 182.901C345.982 202.165 281.613 246.959 238.551 307.312C199.53 361.221 177.976 427.412 177.617 493.963C177.774 626.367 177.527 758.794 177.752 891.198C157.5 875.145 139.113 856.89 121.713 837.806C119.108 835.426 118.232 832.058 118.435 828.622C118.524 725.317 118.435 621.989 118.479 518.661C118.502 502.248 118.143 485.812 119.4 469.422C125.327 380.306 163.989 293.885 226.36 229.985C276.674 177.4 342.39 139.881 413.135 122.907Z" fill="white"/>
<path d="M479.75 231.848C538.887 226.325 599.799 241.615 649.26 274.509C698.878 306.751 736.664 356.327 755.569 412.324C772.812 464.482 774.091 522.096 757.657 574.636C736.687 645.003 684.778 705.379 618.479 736.903C549.193 770.941 464.797 772.019 394.501 740.248C386.148 736.453 376.831 732.771 371.757 724.621C362.821 711.935 366.593 692.536 379.57 684.071C388.865 677.245 401.73 677.38 411.654 682.791C450.158 702.28 494.972 708.275 537.428 701.18C582.017 693.748 623.979 671.25 654.693 638.065C681.568 608.966 700.27 572.188 706.961 533.076C714.662 490.078 708.263 444.701 688.82 405.588C664.998 356.641 620.881 317.932 569.197 300.756C526.561 286.251 479.143 286.409 436.485 300.846C375.911 321.008 325.956 370.921 306.512 431.836C299.013 453.952 295.623 477.37 295.803 500.699C295.87 639.143 295.803 777.61 295.825 916.076C295.511 931.816 296.544 947.6 295.287 963.339C274.99 955.346 255.772 944.681 237.047 933.5C236.081 803.475 236.912 673.383 236.643 543.359C236.979 515.764 235.385 487.99 239.27 460.575C246.813 403.657 273.643 349.479 314.505 309.131C358.061 264.831 417.805 236.743 479.75 231.848Z" fill="white"/>
</g>
<defs>
<clipPath id="clip0_283_83">
<rect width="1000" height="1000" fill="white"/>
</clipPath>
</defs>
</svg>
