<svg width="448" height="448" viewBox="0 0 448 448" fill="none" xmlns="http://www.w3.org/2000/svg">
<mask id="mask0_17_70" style="mask-type:alpha" maskUnits="userSpaceOnUse" x="0" y="0" width="448" height="448">
<circle cx="224" cy="224" r="221.365" fill="#171E60" stroke="black" stroke-width="5.27059"/>
</mask>
<g mask="url(#mask0_17_70)">
<path d="M15.8125 342.588V221.365C15.8125 104.93 110.201 10.5411 226.636 10.5411C343.071 10.5411 437.46 104.93 437.46 221.365C437.46 337.799 343.071 432.188 226.636 432.188C210.461 432.188 194.712 430.367 179.582 426.918" stroke="white" stroke-width="26.3529" stroke-linecap="round"/>
<path d="M68.5176 400.565V221.365C68.5176 134.039 139.309 63.2471 226.635 63.2471C313.961 63.2471 384.753 134.039 384.753 221.365C384.753 308.691 313.961 379.482 226.635 379.482C210.109 379.482 194.174 376.947 179.2 372.244" stroke="white" stroke-width="26.3529" stroke-linecap="round"/>
<path d="M121.224 432.188C121.224 314.866 121.224 338.687 121.224 221.365C121.224 163.147 168.418 115.953 226.636 115.953C284.853 115.953 332.047 163.147 332.047 221.365C332.047 279.582 284.853 326.776 226.636 326.776C209.574 326.776 193.458 322.723 179.2 315.526" stroke="white" stroke-width="26.3529" stroke-linecap="round"/>
</g>
</svg>
