<svg width="1000" height="1000" viewBox="0 0 1000 1000" fill="none" xmlns="http://www.w3.org/2000/svg">
<path d="M456.76 42.7703C471.286 28.6345 485.182 13.8518 499.993 0C514.015 13.0472 527.122 27.0568 540.844 40.4038C542.484 42.9438 547.973 45.3261 546.175 48.6392C530.907 64.0529 515.718 79.6243 499.993 94.5963C488.92 84.4046 478.652 73.3926 467.895 62.8854C463.085 57.758 457.612 53.2775 453.195 47.8188C453.148 45.6416 455.577 44.3795 456.76 42.7703Z" fill="#E60076"/>
<path d="M402.423 97.2626C404.663 94.0441 407.328 97.9567 409.142 99.5344C423.196 114.128 438.022 127.98 451.855 142.778C441.634 153.837 430.625 164.124 420.088 174.883C414.962 179.664 410.499 185.17 405.041 189.619C402.865 189.555 401.587 187.236 400.01 186.037C385.862 171.491 371.099 157.561 357.203 142.794C371.935 127.285 387.329 112.424 402.423 97.2626Z" fill="#E60076"/>
<path d="M588.477 101.948C591.017 100.26 593.398 94.7383 596.742 96.5842C612.247 111.809 627.751 127.08 642.783 142.794C629.928 156.488 616.269 169.409 603.13 182.835C600.464 185.059 598.398 188.798 594.944 189.603C579.045 174.331 563.462 158.649 548.131 142.794C561.175 128.784 575.165 115.69 588.477 101.948Z" fill="#E60076"/>
<path d="M118.295 236.065C166.007 236.065 213.719 235.797 261.431 236.191C261.179 268.028 261.242 299.865 261.4 331.702C245.375 331.718 229.318 330.992 213.325 332.065C213.64 429.391 213.404 526.716 213.451 624.042C215.312 688.048 241.416 750.16 282.772 798.673C318.702 841.001 365.957 874.132 418.905 891.297C459.173 904.597 502.753 908.194 544.503 900.511C652.83 881.074 745.368 795.581 776.03 690.256C781.976 669.763 785.32 648.543 786.487 627.245C786.613 528.483 786.377 429.722 786.613 330.961C770.872 331.182 755.115 331.324 739.374 330.898C739.059 299.297 738.869 267.665 739.453 236.081C786.866 235.954 834.294 236.002 881.707 236.049C882.306 362.719 881.77 489.405 881.959 616.075C882.353 676.231 868.394 736.45 841.155 790.09C800.635 870.535 730.825 935.882 647.593 970.385C590.354 994.539 527.106 1004.07 465.277 998.42C408.906 993.419 353.717 975.591 305.106 946.61C250.879 914.378 204.681 868.595 172.332 814.402C135.802 754.104 116.985 683.409 118.042 612.935C118.042 518.276 118.042 423.617 118.042 328.957C118.216 297.988 117.711 267.018 118.295 236.065Z" fill="#E60076"/>
<path d="M309.128 236.033C436.35 236.002 563.572 235.986 690.794 236.049C691.283 274.891 690.889 313.764 690.999 352.622C691.047 404.211 664.706 454.98 622.325 484.435C604.108 496.788 585.402 508.447 567.121 520.737C563.146 522.599 566.948 526.496 568.004 529.067C595.796 581.792 623.398 634.628 651.11 687.401C656.126 696.63 661.031 705.938 665.495 715.467C632.42 716.209 599.313 715.467 566.222 715.83C563.351 715.562 560.102 716.303 557.547 714.757C522.027 647.218 486.791 579.458 451.034 512.028C435.419 512.013 419.789 511.681 404.174 512.281C404.552 561.078 404.237 609.875 404.347 658.687C404.158 677.635 404.694 696.599 404.063 715.562C372.423 715.893 340.768 715.941 309.128 715.53C308.497 632.435 309.049 549.324 308.86 466.213C309.049 389.492 308.513 312.755 309.128 236.033ZM405.057 331.829C404.6 359.879 404.631 387.962 405.041 416.012C452.47 416.643 499.914 416.044 547.358 416.328C553.494 416.864 558.052 412.115 563.004 409.307C575.654 401.75 586.6 390.454 591.537 376.35C597.105 362.183 594.944 346.674 594.928 331.829C576.443 331.229 557.926 331.734 539.424 331.56C494.63 331.75 449.836 331.229 405.057 331.829Z" fill="#E60076"/>
</svg>
