<svg width="499" height="654" viewBox="0 0 499 654" fill="none" xmlns="http://www.w3.org/2000/svg">
<path d="M247.267 0H254.16C258.427 14.2133 285.08 21.2 277.547 36.7467C268.147 45.16 260.787 56.3067 249.893 62.7333C237.947 58.4133 230.427 46.4133 221.6 37.72C215.933 21.3733 242.427 14.8 247.267 0Z" fill="#910048"/>
<path d="M184.534 64.6802C187.294 64.7068 190.054 64.7602 192.814 64.8402C200.694 75.2402 211.6 82.8002 219.347 93.2802C210.534 104.8 199.627 115.147 189.014 124.52C176.067 122.267 169.84 106.574 158.667 100.16C158.68 96.5868 158.72 93.0268 158.867 89.4668C168.254 82.1068 176.08 73.0402 184.534 64.6802Z" fill="#910048"/>
<path d="M307.88 64.7469C323.414 61.8269 329.187 81.5868 341.68 88.4135C341.6 91.5735 341.534 94.7469 341.467 97.9069C332.134 105.76 323.307 114.84 315.654 124.494C313.134 124.6 310.614 124.72 308.094 124.84C299.147 116.254 290.414 107.454 281.534 98.8135C281.507 96.0402 281.507 93.2669 281.534 90.4935C290.56 82.1602 299.467 73.6935 307.88 64.7469Z" fill="#910048"/>
<path d="M401.707 205.16C407.8 188.84 390.133 151.533 417.973 153.8C442.387 154.293 466.813 153.627 491.213 154.053C497.493 153.533 499.027 160.4 498.88 165.293C498.693 249.32 498.787 333.36 498.84 417.387C494.64 524.76 411.867 624.813 306.2 646.547C301.173 648.013 296.707 650.787 292.187 653.333H211.707C202.787 646.173 191.48 644.307 180.533 642.573C101.627 621.24 36.6533 557.72 12.8933 479.573C2.8 454.293 4.78667 426.68 0.253333 400.307C0.0666667 321.6 0.56 242.827 0 164.133C0.373333 155.987 10.08 154.133 16.6133 154.32C37.5467 155.387 58.5333 155.347 79.4667 154.333C85.52 154.387 95.1467 154.64 95.36 162.8C96.4533 180.147 95.48 197.613 95.6933 215.013C85.9467 219.933 67.4267 210.653 64.2267 224.28C64.3333 286 64.3867 347.773 64.2267 409.52C70.12 514.187 176.053 606.533 281.413 584.48C364.107 567.293 431.333 490.333 434.507 405.373C435.12 346.093 434.147 286.787 435.013 227.507C435.093 206.84 397.427 229.2 401.707 205.16Z" fill="#910048"/>
<path d="M124.4 160.147C126.813 158.28 128.933 156.013 131.547 154.44C208.68 156.253 286.027 155.533 363.213 154.8C365.68 155.32 368.093 156.107 370.533 156.733C371.76 157.88 372.973 159.04 374.213 160.187C372.173 192.88 379.893 228.773 369.48 259.413C367.773 272.973 360.6 285.867 351.107 295.733C348.733 302.24 341.6 306.027 337.707 311.827C336.28 312.16 334.853 312.507 333.44 312.84C325.88 321.04 315.48 325.493 306.84 332.96C306.787 335.04 306.733 337.147 306.68 339.24C312.32 344.853 314.747 352.16 317.76 359.067C337.053 391.853 354.107 427.52 372.747 461.587C372.533 463.107 372.333 464.627 372.133 466.16C369.747 467.053 366.64 466.653 364.747 468.4C345.613 468.333 326.493 468.413 307.36 468.36C291.16 455.147 288.627 432.307 276.24 416.453C262.387 389.907 248.627 362.813 234.653 336.533C220.587 334.013 206.253 335.533 192.053 335.28C184.733 376.28 192.133 422.08 188.307 464.84C186.267 466.08 183.84 466.8 182.08 468.453C165.173 468.333 148.253 468.333 131.347 468.453C129.48 466.867 127.067 466.107 124.973 464.84C123.307 363.333 124.44 261.693 124.4 160.147ZM191.307 218.307C190.36 219.8 189.44 221.28 188.507 222.773C191.587 238.413 185.027 255.333 191.72 270.08C220.507 271.613 249.347 270 278.067 271.16C284.44 271.133 288.453 265.827 293.72 263.6C306.507 253.733 312.493 238.64 312.107 222.613C310.12 220.84 308.387 218.773 306.16 217.227C267.973 217.413 229.427 215.453 191.307 218.307Z" fill="#910048"/>
</svg>
