<svg width="1472" height="1007" viewBox="0 0 1472 1007" fill="none" xmlns="http://www.w3.org/2000/svg">
<path d="M1190.9 20.772C1247.1 10.0878 1314.79 31.2986 1340.64 85.6859C1359.9 128.127 1348.88 177.961 1325.34 216.322C1259.91 313.564 1135.05 351.846 1022.73 351.866C1015.71 351.886 1013.01 359.436 1010.05 364.522C956.909 472.114 901.773 578.799 841.334 682.487C805.181 744.247 766.938 805.948 715.725 856.531C684.815 887.144 644.759 912.042 600.327 914.151C530.307 918.409 483.844 849.375 478.522 786.235C458.592 639.159 547.536 509.548 568.569 368.287C576.415 316.442 570.935 250.977 521.929 220.521C425.554 165.956 278.872 250.09 286.461 363.122C289.793 416.011 363.932 429.416 394.704 391.627C423.386 363.3 411.913 321.193 407.182 286.46C423.267 275.381 441.935 295.823 453.329 306.803C518.282 379.405 494.312 500.106 421.257 558.14C358.905 610.28 262.944 619.722 193.339 576.591C144.944 546.509 116.676 490.17 115.651 433.871C112.497 360.146 148.926 289.653 200.751 239.07C293.144 149.338 431.586 107.665 557.846 135.303C626.525 150.008 688.738 195.012 721.205 257.699C754.697 321.193 759.723 395.747 751.03 465.943C740.484 578.7 690.335 682.763 672.712 793.746C684.855 795.5 691.419 783.712 697.944 775.649C737.724 723.983 768.239 666.146 799.188 608.979C845.414 520.232 892.666 431.604 932.249 339.743C882.356 326.062 829.408 304.851 800.647 259.138C768.712 211.926 780.205 137.668 831.911 109.341C877.073 86.4547 937.591 90.9491 976.642 123.968C954.8 134.416 933.786 151.467 928.484 176.285C920.579 210.231 943.643 243.979 972.798 259.433C1000.24 213.858 1018.04 162.802 1048.12 118.626C1080.41 68.9892 1131.64 30.2538 1190.9 20.772ZM1132.53 185.176C1094.72 207.333 1069.9 245.989 1050.88 284.409C1093.28 289.909 1138.29 276.465 1171.94 250.208C1189.32 236.626 1206.35 212.281 1195.16 189.907C1181.22 169.366 1151.36 175.162 1132.53 185.176Z" fill="#D3A329"/>
<path d="M1379.59 179.105C1427.41 227.756 1459.17 292.335 1468.61 359.91C1484.95 483.765 1429.52 607.364 1347.2 697.569C1257.8 796.724 1141.95 869.542 1018.61 918.962C886.534 972.521 745.155 1003.63 602.514 1006.8C462.83 1009.42 318.888 986.458 195.979 916.971C95.9572 861.519 13.7553 762.502 2.10514 645.862C-9.13109 543.061 25.3464 437.736 87.9933 356.421C79.6548 390.268 78.3735 425.139 77.999 459.715C52.3922 522.205 38.8496 591.593 52.1951 658.695C65.7377 732.854 111.609 798.32 171.181 843.305C269.35 918.292 394.131 949.3 515.542 957.835C672.908 968.598 831.911 940.922 979.204 885.49C1147.81 819.984 1315.9 712.688 1393.31 542.647C1441.17 442.092 1434.09 314.926 1360.33 228.525C1367.9 212.518 1374.64 196.118 1379.59 179.105Z" fill="#D3A329"/>
<path d="M501.86 69.048C689.978 0.999832 898.085 -22.0246 1094.07 23.9454C1077.61 35.6153 1061.86 48.2906 1047.8 62.8188C895.759 32.7767 736.953 45.0577 588.832 88.9381C574.186 92.9595 559.717 101.456 544.065 97.8285C510.277 91.8753 475.82 92.8412 441.736 94.8519C460.601 83.7734 481.497 76.8148 501.86 69.048Z" fill="#D3A329"/>
<path d="M1146.15 384.079C1148.73 376.904 1159.85 377.258 1161.98 384.651C1174.68 415.974 1182.36 449.466 1196.54 480.119C1228.21 494.943 1263.01 503.045 1295.95 514.971C1304.15 517.455 1303.2 529.223 1294.84 530.702C1261.65 541.445 1228.83 553.47 1195.49 563.819C1182.8 595.754 1175.29 629.482 1163.73 661.791C1162.12 670.11 1150.21 671.667 1147.71 663.073C1134.58 631.256 1126.56 597.291 1112.95 565.771C1080.02 552.603 1044.81 544.58 1011.99 530.722C1005.07 528.435 1005.68 518.579 1012.52 516.627C1044.47 502.395 1079.15 494.963 1111.26 481.361C1127.23 451.142 1133.93 416.132 1146.15 384.079Z" fill="#D3A329"/>
</svg>
