<svg width="2500" height="2500" viewBox="0 0 2500 2500" fill="none" xmlns="http://www.w3.org/2000/svg">
<rect width="2500" height="2500" rx="200" fill="#040302"/>
<path d="M2011.57 509.454C2105.04 491.685 2217.62 526.961 2260.6 617.413C2292.64 687.998 2274.31 770.877 2235.16 834.676C2126.35 996.401 1918.7 1060.07 1731.89 1060.1C1720.22 1060.13 1715.73 1072.69 1710.81 1081.15C1622.42 1260.09 1530.73 1437.52 1430.21 1609.96C1370.08 1712.68 1306.48 1815.29 1221.31 1899.41C1169.9 1950.33 1103.28 1991.74 1029.39 1995.24C912.936 2002.33 835.663 1887.51 826.811 1782.51C793.666 1537.9 941.59 1322.34 976.571 1087.41C989.619 1001.19 980.505 892.311 899.003 841.659C738.72 750.911 494.771 890.835 507.393 1078.82C512.934 1166.78 636.236 1189.08 687.412 1126.23C735.113 1079.12 716.033 1009.09 708.165 951.323C734.917 932.898 765.964 966.895 784.913 985.156C892.938 1105.9 853.072 1306.64 731.573 1403.16C627.876 1489.87 468.281 1505.58 352.519 1433.84C272.034 1383.81 225.021 1290.12 223.316 1196.48C218.071 1073.87 278.656 956.634 364.846 872.509C518.507 723.274 748.752 653.968 958.736 699.932C1072.96 724.389 1176.42 799.236 1230.42 903.49C1286.12 1009.09 1294.48 1133.08 1280.02 1249.82C1262.48 1437.35 1179.08 1610.42 1149.77 1795C1169.97 1797.91 1180.88 1778.31 1191.73 1764.9C1257.89 1678.97 1308.64 1582.78 1360.12 1487.71C1436.99 1340.11 1515.58 1192.71 1581.41 1039.94C1498.43 1017.19 1410.37 981.91 1362.54 905.883C1309.43 827.365 1328.54 703.866 1414.54 656.755C1489.65 618.692 1590.29 626.167 1655.24 681.081C1618.92 698.456 1583.97 726.815 1575.15 768.09C1562 824.545 1600.36 880.672 1648.85 906.375C1694.48 830.578 1724.09 745.666 1774.12 672.196C1827.82 589.645 1913.02 525.224 2011.57 509.454ZM1914.5 782.876C1851.62 819.726 1810.34 884.016 1778.71 947.913C1849.23 957.06 1924.07 934.701 1980.04 891.032C2008.95 868.444 2037.28 827.955 2018.66 790.744C1995.48 756.583 1945.81 766.222 1914.5 782.876Z" fill="white"/>
</svg>
