<svg width="1236" height="897" viewBox="0 0 1236 897" fill="none" xmlns="http://www.w3.org/2000/svg">
<path d="M1075.44 2.67829C1131.64 -8.00599 1199.33 13.2048 1225.18 67.5921C1244.43 110.034 1233.42 159.867 1209.88 198.228C1144.45 295.471 1019.59 333.753 907.269 333.772C900.251 333.792 897.551 341.342 894.594 346.428C841.448 454.02 786.312 560.705 725.873 664.394C689.72 726.153 651.477 787.854 600.264 838.437C569.354 869.051 529.298 893.948 484.866 896.057C414.846 900.315 368.383 831.281 363.061 768.141C343.132 621.065 432.075 491.454 453.109 350.193C460.954 298.349 455.474 232.883 406.468 202.427C310.093 147.862 163.411 231.996 171 345.028C174.332 397.918 248.471 411.322 279.243 373.533C307.925 345.206 296.452 303.1 291.721 268.366C307.806 257.287 326.474 277.729 337.868 288.709C402.822 361.311 378.851 482.012 305.796 540.046C243.444 592.186 147.483 601.628 77.8777 558.497C29.4831 528.415 1.21511 472.077 0.190046 415.777C-2.96398 342.052 33.465 271.559 85.2897 220.976C177.683 131.244 316.125 89.5717 442.385 117.209C511.064 131.915 573.277 176.919 605.744 239.605C639.236 303.1 644.262 377.653 635.569 447.85C625.023 560.606 574.874 664.67 557.251 775.652C569.394 777.406 575.958 765.618 582.483 757.556C622.263 705.889 652.778 648.052 683.727 590.885C729.953 502.139 777.205 413.51 816.788 321.649C766.895 307.969 713.947 286.758 685.186 241.044C653.251 193.832 664.744 119.574 716.45 91.2473C761.612 68.3609 822.13 72.8554 861.181 105.874C839.339 116.322 818.325 133.373 813.023 158.192C805.118 192.137 828.182 225.885 857.337 241.34C884.777 195.764 902.577 144.708 932.659 100.532C964.948 50.8955 1016.18 12.1601 1075.44 2.67829ZM1017.07 167.082C979.26 189.239 954.441 227.896 935.419 266.316C977.821 271.815 1022.82 258.371 1056.47 232.114C1073.86 218.532 1090.89 194.187 1079.7 171.813C1065.76 151.272 1035.89 157.068 1017.07 167.082Z" fill="white"/>
</svg>
