<svg width="2500" height="2500" viewBox="0 0 2500 2500" fill="none" xmlns="http://www.w3.org/2000/svg">
<rect width="2500" height="2500" rx="200" fill="#040302"/>
<path d="M2069.42 452.793C2169.98 433.674 2291.11 471.629 2337.36 568.951C2371.82 644.897 2352.1 734.07 2309.99 802.714C2192.91 976.723 1969.48 1045.23 1768.49 1045.26C1755.93 1045.3 1751.1 1058.81 1745.81 1067.91C1650.71 1260.43 1552.05 1451.34 1443.9 1636.88C1379.2 1747.4 1310.77 1857.81 1219.13 1948.32C1163.82 2003.1 1092.14 2047.65 1012.63 2051.43C887.336 2059.05 804.195 1935.52 794.671 1822.53C759.008 1559.35 918.166 1327.42 955.804 1074.64C969.843 981.873 960.037 864.727 872.345 810.228C699.888 712.588 437.412 863.139 450.992 1065.4C456.954 1160.04 589.621 1184.03 644.684 1116.41C696.008 1065.72 675.478 990.374 667.013 928.22C695.796 908.396 729.201 944.976 749.59 964.624C865.819 1094.54 822.925 1310.52 692.198 1414.37C580.626 1507.67 408.91 1524.57 284.356 1447.39C197.758 1393.56 147.174 1292.75 145.34 1192C139.696 1060.08 204.883 933.935 297.619 843.421C462.95 682.852 710.682 608.282 936.615 657.737C1059.51 684.051 1170.84 764.583 1228.93 876.755C1288.86 990.374 1297.86 1123.78 1282.3 1249.39C1263.43 1451.16 1173.69 1637.38 1142.16 1835.97C1163.89 1839.11 1175.63 1818.02 1187.31 1803.59C1258.49 1711.14 1313.1 1607.64 1368.48 1505.34C1451.2 1346.54 1535.75 1187.95 1606.58 1023.57C1517.3 999.087 1422.55 961.131 1371.09 879.33C1313.94 794.848 1334.51 661.97 1427.03 611.28C1507.85 570.327 1616.14 578.369 1686.02 637.454C1646.93 656.149 1609.33 686.662 1599.84 731.072C1585.7 791.814 1626.97 852.204 1679.14 879.859C1728.24 798.305 1760.09 706.944 1813.92 627.894C1871.7 539.074 1963.38 469.76 2069.42 452.793ZM1964.97 746.981C1897.31 786.629 1852.9 855.802 1818.86 924.552C1894.74 934.393 1975.27 910.336 2035.48 863.351C2066.59 839.047 2097.07 795.483 2077.03 755.447C2052.1 718.691 1998.66 729.061 1964.97 746.981Z" fill="#D3A329"/>
</svg>
