<svg width="2500" height="2500" viewBox="0 0 2500 2500" fill="none" xmlns="http://www.w3.org/2000/svg">
<rect width="2500" height="2500" rx="200" fill="#040302"/>
<path d="M1925.57 533.833C2008.98 517.975 2109.45 549.456 2147.81 630.18C2176.4 693.172 2160.04 767.137 2125.11 824.073C2028 968.404 1842.68 1025.22 1675.97 1025.25C1665.55 1025.28 1661.54 1036.49 1657.15 1044.04C1578.27 1203.73 1496.44 1362.07 1406.73 1515.97C1353.07 1607.64 1296.31 1699.21 1220.3 1774.29C1174.42 1819.73 1114.97 1856.68 1049.02 1859.81C945.097 1866.13 876.136 1763.67 868.236 1669.96C838.656 1451.66 970.669 1259.29 1001.89 1049.62C1013.53 972.675 1005.4 875.509 932.662 830.305C789.619 749.319 571.91 874.192 583.174 1041.96C588.119 1120.46 698.158 1140.35 743.83 1084.27C786.401 1042.22 769.373 979.727 762.351 928.174C786.225 911.731 813.933 942.071 830.844 958.368C927.25 1066.13 891.672 1245.27 783.241 1331.41C690.697 1408.8 548.269 1422.81 444.959 1358.79C373.13 1314.15 331.174 1230.53 329.652 1146.97C324.971 1037.54 379.04 932.914 455.96 857.837C593.092 724.654 798.572 662.802 985.971 703.822C1087.91 725.649 1180.24 792.445 1228.43 885.486C1278.14 979.727 1285.6 1090.38 1272.7 1194.57C1257.05 1361.93 1182.61 1516.38 1156.46 1681.1C1174.48 1683.71 1184.22 1666.21 1193.91 1654.24C1252.95 1577.56 1298.24 1491.71 1344.18 1406.87C1412.79 1275.15 1482.92 1143.6 1541.67 1007.26C1467.62 986.953 1389.03 955.472 1346.34 887.622C1298.94 817.549 1316 707.333 1392.75 665.289C1459.78 631.321 1549.6 637.991 1607.56 686.999C1575.14 702.506 1543.95 727.814 1536.08 764.65C1524.35 815.032 1558.58 865.122 1601.85 888.061C1642.58 820.416 1669 744.637 1713.65 679.07C1761.57 605.398 1837.62 547.906 1925.57 533.833ZM1838.93 777.845C1782.82 810.732 1745.98 868.107 1717.75 925.131C1780.68 933.294 1847.48 913.34 1897.42 874.368C1923.23 854.209 1948.5 818.075 1931.89 784.867C1911.2 754.38 1866.87 762.982 1838.93 777.845Z" fill="#D3A329"/>
<path d="M2205.62 768.832C2276.6 841.041 2323.74 936.891 2337.75 1037.19C2362.01 1221.02 2279.74 1404.47 2157.55 1538.35C2024.87 1685.52 1852.92 1793.6 1669.85 1866.95C1473.82 1946.44 1263.98 1992.61 1052.27 1997.32C844.946 2001.21 631.303 1967.13 448.878 1863.99C300.423 1781.69 178.416 1634.73 161.125 1461.61C144.447 1309.02 195.62 1152.7 288.602 1032.01C276.226 1082.25 274.324 1134 273.768 1185.32C235.762 1278.07 215.662 1381.06 235.469 1480.65C255.57 1590.72 323.653 1687.89 412.072 1754.66C557.777 1865.95 742.981 1911.98 923.182 1924.65C1156.75 1940.62 1392.75 1899.54 1611.36 1817.27C1861.61 1720.04 2111.09 1560.79 2225.99 1308.41C2297.03 1159.16 2286.52 970.421 2177.04 842.182C2188.27 818.425 2198.28 794.082 2205.62 768.832Z" fill="#D3A329"/>
<path d="M902.878 605.483C1182.09 504.484 1490.97 470.31 1781.85 538.54C1757.42 555.861 1734.04 574.674 1713.18 596.237C1487.51 551.648 1251.81 569.876 1031.96 635.005C1010.23 640.973 988.751 653.583 965.52 648.2C915.371 639.364 864.228 640.798 813.641 643.782C841.641 627.339 872.654 617.011 902.878 605.483Z" fill="#D3A329"/>
<path d="M1859.15 1073.06C1862.98 1062.41 1879.48 1062.94 1882.64 1073.91C1901.49 1120.4 1912.9 1170.11 1933.93 1215.6C1980.95 1237.61 2032.59 1249.63 2081.48 1267.33C2093.65 1271.02 2092.25 1288.49 2079.84 1290.68C2030.57 1306.63 1981.86 1324.47 1932.38 1339.83C1913.54 1387.23 1902.39 1437.29 1885.25 1485.25C1882.85 1497.59 1865.18 1499.91 1861.46 1487.15C1841.98 1439.93 1830.07 1389.52 1809.88 1342.73C1760.99 1323.19 1708.73 1311.28 1660.02 1290.71C1649.75 1287.32 1650.66 1272.69 1660.81 1269.79C1708.24 1248.67 1759.7 1237.64 1807.36 1217.45C1831.06 1172.6 1841.01 1120.63 1859.15 1073.06Z" fill="#D3A329"/>
</svg>
